# Blender v2.78 (sub 0) OBJ File: 'Mirror_1.blend'
# www.blender.org
mtllib Mirror_1.mtl
o Cube.001
v 1.963746 5.589121 -1.277480
v 1.963746 5.589121 1.277479
v 1.852144 5.589121 1.277480
v 1.852144 5.589121 -1.277480
v 1.852144 7.589121 1.277479
v 1.852144 8.589121 0.433939
v 1.852144 7.779132 1.253624
v 1.852144 7.958739 1.196201
v 1.852144 8.123388 1.112808
v 1.852144 8.269732 1.007698
v 1.852144 8.394235 0.884231
v 1.852144 8.493007 0.745315
v 1.852144 8.561002 0.593722
v 1.852144 7.589121 -1.277480
v 1.852144 8.589121 -0.433940
v 1.852144 7.779132 -1.253624
v 1.852144 7.958739 -1.196202
v 1.852144 8.123388 -1.112808
v 1.852144 8.269732 -1.007699
v 1.852144 8.394235 -0.884231
v 1.852144 8.493007 -0.745315
v 1.852144 8.561002 -0.593722
v 1.963746 8.589121 0.433939
v 1.963746 8.589121 -0.433940
v 1.963746 8.561002 -0.593722
v 1.963746 8.493007 -0.745315
v 1.963746 8.394235 -0.884231
v 1.963746 8.269732 -1.007699
v 1.963746 8.123388 -1.112808
v 1.963746 7.958739 -1.196202
v 1.963746 7.779132 -1.253624
v 1.963746 7.589121 -1.277480
v 1.963746 7.589121 1.277479
v 1.963746 7.779132 1.253624
v 1.963746 7.958739 1.196201
v 1.963746 8.123388 1.112808
v 1.963746 8.269732 1.007698
v 1.963746 8.394235 0.884231
v 1.963746 8.493007 0.745315
v 1.963746 8.561002 0.593722
v 1.972032 8.686302 -0.472588
v 1.972032 8.654007 -0.646602
v 1.946903 5.443896 1.391258
v 1.946903 5.443896 -1.391258
v 1.972032 8.686302 0.472588
v 1.972032 5.443896 1.391258
v 1.972032 5.443896 -1.391258
v 1.946903 8.686302 0.472588
v 1.946903 8.686302 -0.472588
v 1.946903 8.654007 -0.646602
v 1.946903 8.575914 -0.811697
v 1.946903 8.462477 -0.962985
v 1.946903 8.319486 -1.097449
v 1.946903 8.151413 -1.211920
v 1.946903 7.962315 -1.302741
v 1.946903 7.756038 -1.365278
v 1.946903 7.537813 -1.391258
v 1.946903 7.537813 1.391258
v 1.946903 7.756038 1.365278
v 1.946903 7.962315 1.302741
v 1.946903 8.151413 1.211920
v 1.946903 8.319486 1.097449
v 1.946903 8.462477 0.962985
v 1.946903 8.575914 0.811697
v 1.946903 8.654007 0.646602
v 1.972032 8.575914 -0.811697
v 1.972032 8.462477 -0.962985
v 1.972032 8.319486 -1.097449
v 1.972032 8.151413 -1.211920
v 1.972032 7.962315 -1.302741
v 1.972032 7.756038 -1.365278
v 1.972032 7.537813 -1.391258
v 1.972032 7.537813 1.391258
v 1.972032 7.756038 1.365278
v 1.972032 7.962315 1.302741
v 1.972032 8.151413 1.211920
v 1.972032 8.319486 1.097449
v 1.972032 8.462477 0.962985
v 1.972032 8.575914 0.811697
v 1.972032 8.654007 0.646602
v 1.972591 8.718848 -0.488546
v 1.972591 8.685116 -0.668436
v 1.946344 5.384397 1.438237
v 1.946343 5.384397 -1.438237
v 1.972591 8.718848 0.488546
v 1.972591 5.384397 1.438237
v 1.972591 5.384397 -1.438237
v 1.946344 8.718848 0.488546
v 1.946344 8.718848 -0.488546
v 1.946344 8.685116 -0.668436
v 1.946343 8.603549 -0.839106
v 1.946343 8.485062 -0.995503
v 1.946343 8.335709 -1.134507
v 1.946343 8.160155 -1.252843
v 1.946343 7.962642 -1.346731
v 1.946343 7.747185 -1.411380
v 1.946343 7.519248 -1.438237
v 1.946344 7.519248 1.438237
v 1.946344 7.747185 1.411380
v 1.946344 7.962642 1.346731
v 1.946344 8.160155 1.252843
v 1.946344 8.335709 1.134506
v 1.946344 8.485062 0.995502
v 1.946344 8.603549 0.839105
v 1.946344 8.685116 0.668436
v 1.972591 8.603549 -0.839106
v 1.972591 8.485062 -0.995503
v 1.972591 8.335709 -1.134507
v 1.972591 8.160155 -1.252843
v 1.972591 7.962642 -1.346731
v 1.972591 7.747185 -1.411380
v 1.972591 7.519248 -1.438237
v 1.972591 7.519248 1.438237
v 1.972591 7.747185 1.411380
v 1.972591 7.962642 1.346731
v 1.972591 8.160155 1.252843
v 1.972591 8.335709 1.134506
v 1.972591 8.485062 0.995502
v 1.972591 8.603549 0.839105
v 1.972591 8.685116 0.668436
v 1.197028 5.665901 -1.176319
v 1.197029 5.665901 1.176319
v 1.874761 5.665901 1.194358
v 1.874760 5.665901 -1.194358
v 1.197029 5.635094 1.176319
v 1.197028 5.635094 -1.176319
v 1.874760 5.635094 -1.194358
v 1.874761 5.635094 1.194358
vt 0.6651 0.0227
vt 0.8138 0.0227
vt 0.8412 0.0276
vt 0.8672 0.0395
vt 0.8910 0.0567
vt 0.9122 0.0785
vt 0.9302 0.1041
vt 0.9445 0.1328
vt 0.9543 0.1642
vt 0.9584 0.1974
vt 0.9584 0.5468
vt 0.5205 0.5468
vt 0.5205 0.1974
vt 0.5246 0.1642
vt 0.5344 0.1328
vt 0.5487 0.1041
vt 0.5668 0.0785
vt 0.5879 0.0567
vt 0.6117 0.0395
vt 0.6377 0.0276
vt 0.3209 0.0226
vt 0.3482 0.0275
vt 0.3742 0.0394
vt 0.3980 0.0566
vt 0.4192 0.0784
vt 0.4372 0.1039
vt 0.4515 0.1327
vt 0.4613 0.1641
vt 0.4654 0.1973
vt 0.4654 0.5468
vt 0.0276 0.5468
vt 0.0276 0.1973
vt 0.0316 0.1641
vt 0.0415 0.1327
vt 0.0558 0.1039
vt 0.0738 0.0784
vt 0.0949 0.0566
vt 0.1188 0.0394
vt 0.1447 0.0275
vt 0.1721 0.0226
vt 0.0388 0.0992
vt 0.0584 0.0698
vt 0.9779 0.2063
vt 0.9779 0.5722
vt 0.1655 0.0057
vt 0.3275 0.0057
vt 0.0232 0.1322
vt 0.5010 0.5722
vt 0.5010 0.2063
vt 0.0125 0.1683
vt 0.5055 0.1682
vt 0.6585 0.0057
vt 0.8204 0.0057
vt 0.0081 0.2064
vt 0.5162 0.1322
vt 0.4849 0.5723
vt 0.0081 0.5723
vt 0.5318 0.0991
vt 0.6286 0.0113
vt 0.4849 0.2064
vt 0.5514 0.0698
vt 0.8503 0.0113
vt 0.4805 0.1683
vt 0.5744 0.0448
vt 0.6557 0.0000
vt 0.8232 0.0000
vt 0.4976 0.1698
vt 0.5087 0.1321
vt 0.5247 0.0976
vt 0.6249 0.0059
vt 0.5450 0.0669
vt 0.8540 0.0059
vt 0.5688 0.0408
vt 0.8786 0.0250
vt 0.8833 0.0201
vt 0.6003 0.0250
vt 0.5956 0.0201
vt 0.9045 0.0448
vt 0.9101 0.0408
vt 0.9275 0.0698
vt 0.9339 0.0669
vt 0.3573 0.0113
vt 0.9734 0.1682
vt 0.0814 0.0448
vt 0.3856 0.0250
vt 0.9627 0.1322
vt 0.1074 0.0250
vt 0.4115 0.0448
vt 0.9471 0.0991
vt 0.1357 0.0113
vt 0.4346 0.0698
vt 0.4542 0.0992
vt 0.4697 0.1322
vt 0.4930 0.2096
vt 0.9859 0.5826
vt 0.4930 0.5826
vt 0.9859 0.2096
vt 0.9813 0.1698
vt 0.9703 0.1321
vt 0.9542 0.0976
vt 0.6091 1.0000
vt 0.4930 0.9968
vt 0.4930 0.5857
vt 0.6091 0.5826
vt 0.6091 1.0000
vt 0.6091 0.5826
vt 0.7253 0.5857
vt 0.7253 0.9968
vt 0.7253 1.0000
vt 0.7253 0.5826
vt 0.7305 0.5826
vt 0.7305 1.0000
vt 0.0000 0.7012
vt 0.0000 0.5827
vt 0.0052 0.5827
vt 0.0052 0.7012
vt 0.0052 0.7012
vt 0.0052 0.5827
vt 0.0104 0.5827
vt 0.0104 0.7012
vt 0.7358 0.5826
vt 0.7358 0.9937
vt 0.7305 0.9937
vt 0.7305 0.5826
vt 0.0000 0.2096
vt 0.0046 0.1698
vt 0.4930 0.5827
vt 0.0000 0.5827
vt 0.4930 0.2096
vt 0.4884 0.1698
vt 0.4773 0.1321
vt 0.4612 0.0976
vt 0.4409 0.0670
vt 0.9905 0.4468
vt 0.9860 0.4468
vt 0.9859 0.4077
vt 0.9904 0.4077
vt 0.7403 0.8419
vt 0.7358 0.8419
vt 0.7358 0.6712
vt 0.7403 0.6712
vt 0.9954 0.0298
vt 0.9909 0.0298
vt 0.9910 0.0000
vt 0.9955 0.0000
vt 0.9859 0.3677
vt 0.9904 0.3677
vt 0.7358 0.6397
vt 0.7403 0.6397
vt 0.7403 0.9305
vt 0.7358 0.9305
vt 0.7358 0.9032
vt 0.7403 0.9032
vt 0.9862 0.0000
vt 0.9907 0.0000
vt 0.7358 0.6099
vt 0.7403 0.6099
vt 0.7358 0.8733
vt 0.7403 0.8733
vt 0.9955 0.5471
vt 0.9910 0.5471
vt 0.9907 0.1794
vt 0.9952 0.1794
vt 0.7358 0.5826
vt 0.7403 0.5826
vt 0.9907 0.1394
vt 0.9952 0.1394
vt 0.9907 0.5471
vt 0.9862 0.5471
vt 0.9861 0.5173
vt 0.9906 0.5173
vt 1.0000 0.5027
vt 0.9955 0.5027
vt 0.9955 0.0000
vt 1.0000 0.0000
vt 0.9907 0.1004
vt 0.9952 0.1004
vt 0.9860 0.4836
vt 0.9905 0.4836
vt 0.9908 0.0636
vt 0.9953 0.0636
vt 0.0157 0.1321
vt 0.0318 0.0976
vt 0.1628 0.0000
vt 0.3302 0.0000
vt 0.0521 0.0670
vt 0.3610 0.0059
vt 0.0759 0.0409
vt 0.3903 0.0201
vt 0.1027 0.0201
vt 0.4171 0.0409
vt 0.1319 0.0059
vn 1.0000 -0.0000 -0.0000
vn -1.0000 -0.0000 0.0000
vn -0.7248 0.3945 0.5649
vn 0.9974 0.0000 -0.0726
vn -0.7160 0.6981 0.0000
vn -0.7232 0.3051 0.6196
vn 0.9974 0.0000 0.0726
vn 0.9984 0.0570 -0.0000
vn -0.7302 0.2028 0.6524
vn 0.9970 -0.0093 0.0764
vn 0.9964 -0.0850 0.0000
vn -0.7498 0.0802 0.6568
vn 0.9967 -0.0242 0.0779
vn -0.8375 -0.5465 0.0000
vn -0.7684 0.0000 0.6400
vn 0.9965 -0.0368 0.0747
vn 0.9967 -0.0799 0.0145
vn -0.7684 0.0000 -0.6400
vn 0.9966 -0.0474 0.0679
vn 0.9967 -0.0799 -0.0145
vn -0.7498 0.0802 -0.6568
vn 0.9967 -0.0564 0.0585
vn 0.9999 -0.0172 0.0000
vn 0.9999 -0.0039 0.0128
vn 0.9999 -0.0060 0.0125
vn 0.9999 -0.0158 0.0030
vn 0.9999 -0.0080 0.0118
vn 0.9999 -0.0158 -0.0030
vn 0.9999 -0.0099 0.0106
vn 0.9999 -0.0136 -0.0065
vn 0.9999 -0.0117 0.0088
vn 0.9999 -0.0117 -0.0088
vn 0.9999 -0.0136 0.0065
vn 0.9999 -0.0099 -0.0106
vn -0.7317 0.6707 -0.1214
vn 0.9970 -0.0093 -0.0764
vn -0.7313 0.4734 0.4910
vn -0.7419 0.6089 -0.2809
vn 0.9967 -0.0242 -0.0779
vn -0.7387 0.5441 0.3979
vn -0.7387 0.5441 -0.3979
vn 0.9965 -0.0368 -0.0747
vn -0.7419 0.6089 0.2809
vn -0.7313 0.4734 -0.4910
vn 0.9966 -0.0474 -0.0679
vn -0.7317 0.6707 0.1214
vn -0.7248 0.3945 -0.5649
vn 0.9967 -0.0564 -0.0585
vn 0.9969 -0.0715 0.0330
vn -0.7232 0.3051 -0.6196
vn 0.9968 -0.0642 -0.0470
vn 0.9968 -0.0642 0.0470
vn -0.7302 0.2028 -0.6524
vn 0.9969 -0.0715 -0.0330
vn 0.9999 -0.0015 0.0124
vn 1.0000 0.0094 -0.0000
vn 0.9999 0.0000 0.0119
vn 0.9999 0.0000 -0.0119
vn 0.9999 -0.0015 -0.0124
vn 0.9999 -0.0039 -0.0128
vn 0.9999 -0.0060 -0.0125
vn 0.9999 -0.0080 -0.0118
vn 0.0000 1.0000 0.0000
vn 0.0000 -1.0000 -0.0000
vn -0.0266 0.0000 -0.9996
vn -0.0266 0.0000 0.9996
vn -0.9999 -0.0015 -0.0124
vn -1.0000 0.0094 0.0000
vn -0.9999 0.0000 -0.0119
vn -0.9999 0.0000 0.0119
vn -0.9999 -0.0015 0.0124
vn -0.9999 -0.0039 0.0128
vn -0.9999 -0.0060 0.0125
vn -0.9999 -0.0080 0.0118
vn 0.0000 0.2874 -0.9578
vn 0.0000 0.6813 0.7320
vn 0.0000 0.1170 -0.9931
vn 0.0000 0.9829 -0.1843
vn 0.0000 0.7971 0.6039
vn 0.0000 0.0000 -1.0000
vn 0.0000 0.9023 -0.4312
vn 0.0000 0.9023 0.4312
vn 0.0000 0.0000 1.0000
vn 0.0000 0.7971 -0.6039
vn 0.0000 0.9829 0.1843
vn 0.0000 0.1170 0.9931
vn 0.0000 0.6813 -0.7320
vn 0.0000 0.2874 0.9578
vn 0.0000 0.5589 -0.8292
vn 0.0000 0.4293 0.9032
vn 0.0000 0.4293 -0.9032
vn 0.0000 0.5589 0.8292
vn -0.9999 -0.0039 -0.0128
vn -0.9999 -0.0060 -0.0125
vn -0.9999 -0.0172 0.0000
vn -0.9999 -0.0080 -0.0118
vn -0.9999 -0.0158 0.0030
vn -0.9999 -0.0099 -0.0106
vn -0.9999 -0.0136 0.0065
vn -0.9999 -0.0117 -0.0088
vn -0.9999 -0.0117 0.0088
vn -0.9999 -0.0136 -0.0065
vn -0.9999 -0.0099 0.0106
vn -0.9999 -0.0158 -0.0030
usemtl Mirror
s off
f 24/1/1 23/2/1 40/3/1 39/4/1 38/5/1 37/6/1 36/7/1 35/8/1 34/9/1 33/10/1 2/11/1 1/12/1 32/13/1 31/14/1 30/15/1 29/16/1 28/17/1 27/18/1 26/19/1 25/20/1
f 15/21/2 22/22/2 21/23/2 20/24/2 19/25/2 18/26/2 17/27/2 16/28/2 14/29/2 4/30/2 3/31/2 5/32/2 7/33/2 8/34/2 9/35/2 10/36/2 11/37/2 12/38/2 13/39/2 6/40/2
f 10/36/3 9/35/3 61/41/3 62/42/3
f 2/11/4 33/10/4 73/43/4 46/44/4
f 15/21/5 6/40/5 48/45/5 49/46/5
f 9/35/6 8/34/6 60/47/6 61/41/6
f 32/13/7 1/12/7 47/48/7 72/49/7
f 1/12/8 2/11/8 46/44/8 47/48/8
f 8/34/9 7/33/9 59/50/9 60/47/9
f 31/14/10 32/13/10 72/49/10 71/51/10
f 23/2/11 24/1/11 41/52/11 45/53/11
f 7/33/12 5/32/12 58/54/12 59/50/12
f 30/15/13 31/14/13 71/51/13 70/55/13
f 3/31/14 4/30/14 44/56/14 43/57/14
f 5/32/15 3/31/15 43/57/15 58/54/15
f 29/16/16 30/15/16 70/55/16 69/58/16
f 24/1/17 25/20/17 42/59/17 41/52/17
f 4/30/18 14/29/18 57/60/18 44/56/18
f 28/17/19 29/16/19 69/58/19 68/61/19
f 40/3/20 23/2/20 45/53/20 80/62/20
f 14/29/21 16/28/21 56/63/21 57/60/21
f 27/18/22 28/17/22 68/61/22 67/64/22
f 45/53/23 41/52/23 81/65/23 85/66/23
f 70/55/24 71/51/24 111/67/24 110/68/24
f 69/58/25 70/55/25 110/68/25 109/69/25
f 41/52/26 42/59/26 82/70/26 81/65/26
f 68/61/27 69/58/27 109/69/27 108/71/27
f 80/62/28 45/53/28 85/66/28 120/72/28
f 67/64/29 68/61/29 108/71/29 107/73/29
f 79/74/30 80/62/30 120/72/30 119/75/30
f 66/76/31 67/64/31 107/73/31 106/77/31
f 78/78/32 79/74/32 119/75/32 118/79/32
f 42/59/33 66/76/33 106/77/33 82/70/33
f 77/80/34 78/78/34 118/79/34 117/81/34
f 22/22/35 15/21/35 49/46/35 50/82/35
f 33/10/36 34/9/36 74/83/36 73/43/36
f 11/37/37 10/36/37 62/42/37 63/84/37
f 21/23/38 22/22/38 50/82/38 51/85/38
f 34/9/39 35/8/39 75/86/39 74/83/39
f 12/38/40 11/37/40 63/84/40 64/87/40
f 20/24/41 21/23/41 51/85/41 52/88/41
f 35/8/42 36/7/42 76/89/42 75/86/42
f 13/39/43 12/38/43 64/87/43 65/90/43
f 19/25/44 20/24/44 52/88/44 53/91/44
f 36/7/45 37/6/45 77/80/45 76/89/45
f 6/40/46 13/39/46 65/90/46 48/45/46
f 18/26/47 19/25/47 53/91/47 54/92/47
f 37/6/48 38/5/48 78/78/48 77/80/48
f 25/20/49 26/19/49 66/76/49 42/59/49
f 17/27/50 18/26/50 54/92/50 55/93/50
f 38/5/51 39/4/51 79/74/51 78/78/51
f 26/19/52 27/18/52 67/64/52 66/76/52
f 16/28/53 17/27/53 55/93/53 56/63/53
f 39/4/54 40/3/54 80/62/54 79/74/54
f 71/51/55 72/49/55 112/94/55 111/67/55
f 47/48/56 46/44/56 86/95/56 87/96/56
f 72/49/57 47/48/57 87/96/57 112/94/57
f 46/44/58 73/43/58 113/97/58 86/95/58
f 73/43/59 74/83/59 114/98/59 113/97/59
f 74/83/60 75/86/60 115/99/60 114/98/60
f 75/86/61 76/89/61 116/100/61 115/99/61
f 76/89/62 77/80/62 117/81/62 116/100/62
f 124/101/63 121/102/63 122/103/63 123/104/63
f 127/105/64 128/106/64 125/107/64 126/108/64
f 124/109/1 123/110/1 128/111/1 127/112/1
f 121/113/65 124/114/65 127/115/65 126/116/65
f 123/117/66 122/118/66 125/119/66 128/120/66
f 122/121/2 121/122/2 126/123/2 125/124/2
usemtl Rim
f 59/50/67 58/54/67 98/125/67 99/126/67
f 43/57/68 44/56/68 84/127/68 83/128/68
f 58/54/69 43/57/69 83/128/69 98/125/69
f 44/56/70 57/60/70 97/129/70 84/127/70
f 57/60/71 56/63/71 96/130/71 97/129/71
f 56/63/72 55/93/72 95/131/72 96/130/72
f 55/93/73 54/92/73 94/132/73 95/131/73
f 54/92/74 53/91/74 93/133/74 94/132/74
f 95/134/75 110/135/75 111/136/75 96/137/75
f 88/138/63 85/139/63 81/140/63 89/141/63
f 102/142/76 117/143/76 118/144/76 103/145/76
f 96/137/77 111/136/77 112/146/77 97/147/77
f 89/141/78 81/140/78 82/148/78 90/149/78
f 103/150/79 118/151/79 119/152/79 104/153/79
f 97/147/80 112/146/80 87/154/80 84/155/80
f 90/149/81 82/148/81 106/156/81 91/157/81
f 104/153/82 119/152/82 120/158/82 105/159/82
f 83/160/83 86/161/83 113/162/83 98/163/83
f 91/157/84 106/156/84 107/164/84 92/165/84
f 105/159/85 120/158/85 85/139/85 88/138/85
f 98/163/86 113/162/86 114/166/86 99/167/86
f 92/168/87 107/169/87 108/170/87 93/171/87
f 84/172/64 87/173/64 86/174/64 83/175/64
f 99/167/88 114/166/88 115/176/88 100/177/88
f 93/171/89 108/170/89 109/178/89 94/179/89
f 100/177/90 115/176/90 116/180/90 101/181/90
f 94/179/91 109/178/91 110/135/91 95/134/91
f 101/181/92 116/180/92 117/143/92 102/142/92
f 60/47/93 59/50/93 99/126/93 100/182/93
f 61/41/94 60/47/94 100/182/94 101/183/94
f 49/46/95 48/45/95 88/184/95 89/185/95
f 62/42/96 61/41/96 101/183/96 102/186/96
f 50/82/97 49/46/97 89/185/97 90/187/97
f 63/84/98 62/42/98 102/186/98 103/188/98
f 51/85/99 50/82/99 90/187/99 91/189/99
f 64/87/100 63/84/100 103/188/100 104/190/100
f 52/88/101 51/85/101 91/189/101 92/191/101
f 65/90/102 64/87/102 104/190/102 105/192/102
f 53/91/103 52/88/103 92/191/103 93/133/103
f 48/45/104 65/90/104 105/192/104 88/184/104
