# Blender v2.79 (sub 0) OBJ File: ''
# www.blender.org
mtllib lightswitch.mtl
o Cube.003_Cube.000
v 0.162065 -0.093871 0.000296
v 0.303683 -0.112217 -0.023299
v 0.303807 -0.111740 -0.000096
v 0.310022 -0.062926 0.022080
v 0.316113 -0.014590 0.021053
v 0.174371 0.003279 0.021445
v 0.309525 -0.064836 -0.070733
v 0.303434 -0.113172 -0.069705
v 0.161692 -0.095303 -0.069313
v 0.315616 -0.016500 -0.071760
v 0.315740 -0.016023 -0.048557
v 0.174246 0.002801 -0.001759
v 0.315989 -0.015068 -0.002151
v 0.315864 -0.015545 -0.025353
v 0.303932 -0.111262 0.023108
v 0.162189 -0.093393 0.023500
v 0.161941 -0.094348 -0.022907
v 0.161816 -0.094826 -0.046111
v 0.303559 -0.112695 -0.046503
v 0.168280 -0.045057 0.022472
v 0.167783 -0.046967 -0.070341
v 0.173873 0.001369 -0.071368
v 0.173998 0.001846 -0.048165
v 0.174122 0.002324 -0.024961
v 0.104330 -0.213018 -0.020156
v 0.104206 -0.213496 -0.043360
v 0.147628 0.131104 -0.050684
v 0.147752 0.131581 -0.027480
v 0.104081 -0.213973 -0.066562
v 0.104579 -0.212063 0.026251
v 0.104455 -0.212541 0.003047
v 0.147877 0.132059 -0.004277
v 0.148001 0.132536 0.018927
v 0.147504 0.130626 -0.073886
v 0.004024 0.094245 -0.072369
v 0.004521 0.096155 0.020444
v -0.025886 -0.143119 -0.067324
v -0.025388 -0.141209 0.025489
vt 0.577643 0.663356
vt 0.589227 0.680753
vt 0.589227 0.698150
vt 0.678466 0.593769
vt 0.690051 0.646928
vt 0.690051 0.683455
vt 0.678466 0.773140
vt 0.666881 0.719981
vt 0.666881 0.683455
vt 0.566058 0.663356
vt 0.577643 0.680753
vt 0.577643 0.698150
vt 0.589227 0.732943
vt 0.577643 0.732943
vt 0.589227 0.715546
vt 0.589227 0.663356
vt 0.690051 0.773141
vt 0.678466 0.773141
vt 0.690051 0.719981
vt 0.690051 0.593769
vt 0.666881 0.593769
vt 0.678466 0.593769
vt 0.666881 0.646928
vt 0.666881 0.773140
vt 0.577643 0.732943
vt 0.566058 0.732943
vt 0.577643 0.715546
vt 0.577643 0.663356
vt 0.566058 0.628562
vt 0.566058 0.611166
vt 0.616469 0.628563
vt 0.616469 0.645959
vt 0.616469 0.628562
vt 0.666881 0.628562
vt 0.616469 0.593769
vt 0.616469 0.611166
vt 0.566058 0.593769
vt 0.616469 0.645959
vt 0.616469 0.663356
vt 0.566058 0.663356
vt 0.566058 0.645959
vt 0.616469 0.611166
vt 0.616469 0.593769
vt 0.666881 0.611166
vt 0.666881 0.593769
vt 0.666881 0.645959
vt 0.666881 0.663356
vt 0.616469 0.663356
vt 0.483570 0.744997
vt 0.467073 0.593769
vt 0.483570 0.593769
vt 0.264173 0.593769
vt 0.298811 0.593769
vt 0.298811 0.744997
vt 0.333449 0.744997
vt 0.298811 0.744997
vt 0.298811 0.593769
vt 0.566058 0.630295
vt 0.566058 0.666822
vt 0.549560 0.666822
vt 0.384585 0.744997
vt 0.384585 0.593769
vt 0.401083 0.593769
vt 0.500068 0.593769
vt 0.500068 0.744997
vt 0.467073 0.744997
vt 0.450575 0.744997
vt 0.450575 0.593769
vt 0.434078 0.593769
vt 0.434078 0.744997
vt 0.264173 0.744997
vt 0.229535 0.744997
vt 0.229535 0.593769
vt 0.333449 0.593769
vt 0.368088 0.593769
vt 0.368088 0.744997
vt 0.500068 0.666822
vt 0.500068 0.630295
vt 0.516565 0.666822
vt 0.516565 0.593769
vt 0.533063 0.593769
vt 0.549560 0.593769
vt 0.533063 0.666822
vt 0.566058 0.593769
vt 0.434078 0.593769
vt 0.434078 0.744997
vt 0.417580 0.744997
vt 0.401083 0.744997
vt 0.417580 0.593769
vt 0.368088 0.744997
vt 0.368088 0.593769
vn -0.2459 0.9691 -0.0186
vn -0.0054 -0.0206 -0.9998
vn 0.0054 0.0206 0.9998
vn -0.4787 -0.8778 0.0206
vn 0.8996 -0.4366 0.0042
vn 0.9798 0.1997 -0.0094
vn -0.1250 -0.9919 0.0211
vn 0.9921 -0.1251 -0.0027
vn 0.1250 0.9919 -0.0211
usemtl panel1
s 1
f 36/1/1 32/2/1 28/3/1
f 35/4/2 22/5/2 21/6/2
f 38/7/3 16/8/3 20/9/3
f 37/10/4 26/11/4 25/12/4
f 34/13/1 35/14/1 27/15/1
f 35/14/1 36/1/1 28/3/1
f 27/15/1 35/14/1 28/3/1
f 36/1/1 33/16/1 32/2/1
f 29/17/2 37/18/2 9/19/2
f 37/18/2 35/4/2 21/6/2
f 9/19/2 37/18/2 21/6/2
f 35/4/2 34/20/2 22/5/2
f 33/21/3 36/22/3 6/23/3
f 36/22/3 38/7/3 20/9/3
f 6/23/3 36/22/3 20/9/3
f 38/7/3 30/24/3 16/8/3
f 30/25/4 38/26/4 31/27/4
f 38/26/4 37/10/4 25/12/4
f 31/27/4 38/26/4 25/12/4
f 37/10/4 29/28/4 26/11/4
usemtl back
f 25/29/5 26/30/5 17/31/5
f 27/32/6 28/33/6 24/34/6
f 9/35/5 18/36/5 29/37/5
f 18/36/5 17/31/5 26/30/5
f 29/37/5 18/36/5 26/30/5
f 1/38/5 16/39/5 30/40/5
f 17/31/5 1/38/5 31/41/5
f 1/38/5 30/40/5 31/41/5
f 31/41/5 25/29/5 17/31/5
f 28/33/6 32/42/6 24/34/6
f 32/42/6 33/43/6 12/44/6
f 24/34/6 32/42/6 12/44/6
f 33/43/6 6/45/6 12/44/6
f 24/34/6 23/46/6 27/32/6
f 23/46/6 22/47/6 34/48/6
f 34/48/6 27/32/6 23/46/6
usemtl SWITCH
f 1/49/7 2/50/7 3/51/7
f 4/52/3 5/53/3 6/54/3
f 7/55/2 8/56/2 9/57/2
f 7/58/8 10/59/8 11/60/8
f 12/61/9 13/62/9 14/63/9
f 15/64/7 16/65/7 1/49/7
f 1/49/7 17/66/7 2/50/7
f 17/66/7 18/67/7 19/68/7
f 19/68/7 18/67/7 8/69/7
f 18/67/7 9/70/7 8/69/7
f 19/68/7 2/50/7 17/66/7
f 3/51/7 15/64/7 1/49/7
f 6/54/3 20/71/3 4/52/3
f 20/71/3 16/72/3 4/52/3
f 16/72/3 15/73/3 4/52/3
f 9/57/2 21/74/2 7/55/2
f 21/74/2 22/75/2 7/55/2
f 22/75/2 10/76/2 7/55/2
f 5/77/8 4/78/8 13/79/8
f 4/78/8 15/64/8 3/80/8
f 3/80/8 2/81/8 4/78/8
f 2/81/8 19/82/8 7/58/8
f 4/78/8 14/83/8 13/79/8
f 11/60/8 14/83/8 7/58/8
f 19/82/8 8/84/8 7/58/8
f 4/78/8 2/81/8 7/58/8
f 14/83/8 4/78/8 7/58/8
f 10/85/9 22/86/9 23/87/9
f 23/87/9 24/88/9 11/89/9
f 24/88/9 12/61/9 14/63/9
f 23/87/9 11/89/9 10/85/9
f 12/61/9 6/90/9 5/91/9
f 12/61/9 5/91/9 13/62/9
f 11/89/9 24/88/9 14/63/9
o Cube.003_Cube.001
v -0.019793 0.396064 0.248029
v -0.019793 -0.396064 -0.293910
v -0.019793 -0.396064 0.248029
v -0.019793 0.396064 -0.293910
v 0.183971 0.243787 0.143848
v 0.183971 0.119647 -0.069357
v 0.183971 0.243787 -0.189729
v 0.183971 0.119647 0.023477
v 0.183971 -0.119647 -0.069357
v 0.183971 -0.243787 -0.189729
v 0.183971 -0.243787 0.143848
v 0.183971 -0.119647 0.023477
v 0.141660 -0.396064 -0.293910
v 0.141660 -0.396064 0.248029
v 0.141660 0.396064 0.248029
v 0.141660 0.396064 -0.293910
v 0.042514 0.119647 -0.069357
v 0.042514 0.119647 0.023477
v 0.042514 -0.119647 -0.069357
v 0.042514 -0.119647 0.023477
vt 0.770465 0.000000
vt 0.885233 0.593769
vt 0.770465 0.593769
vt 0.770465 0.593769
vt 0.696409 0.114145
vt 0.770465 0.000000
vt 0.885233 0.000000
vt 1.000000 0.593769
vt 0.885233 0.593769
vt 0.114767 0.593769
vt 0.000000 1.000000
vt 0.000000 0.593769
vt 0.114767 1.000000
vt 0.229535 0.593769
vt 0.229535 1.000000
vt 0.385233 0.593769
vt 0.696409 0.479624
vt 0.459289 0.114145
vt 0.385233 0.000000
vt 0.459289 0.479624
vt 0.885233 0.000000
vt 1.000000 0.000000
vt 0.114767 1.000000
vt 0.114767 0.593769
vt 0.544854 0.207199
vt 0.544854 0.386570
vt 0.610844 0.207199
vt 0.610844 0.386570
vt 0.544854 0.386570
vt 0.610844 0.386570
vt 0.544854 0.207199
vt 0.610844 0.207199
vt 0.000000 0.000000
vt 0.385233 0.593769
vt 0.000000 0.593769
vt 0.385233 0.000000
vn 0.0000 0.0000 -1.0000
vn 0.9265 -0.0000 0.3763
vn 0.0000 -0.0000 1.0000
vn 0.0000 -1.0000 -0.0000
vn 0.0000 1.0000 0.0000
vn 0.9635 -0.2677 -0.0000
vn 0.9635 0.2677 0.0000
vn 0.9265 0.0000 -0.3763
vn 1.0000 0.0000 0.0000
vn 0.0000 0.7071 -0.7071
vn 0.0000 0.7071 0.7071
vn 0.0000 -0.7071 0.7071
vn 0.0000 -0.7071 -0.7071
vn -1.0000 0.0000 0.0000
usemtl panel2_
s 1
f 42/92/10 51/93/10 40/94/10
f 52/95/11 43/96/11 53/97/11
f 53/98/12 41/99/12 52/100/12
f 51/101/13 41/102/13 40/103/13
f 42/104/14 53/105/14 54/106/14
f 51/107/15 49/108/15 52/95/15
f 53/97/16 45/109/16 54/110/16
f 54/110/17 48/111/17 51/107/17
f 42/92/10 54/112/10 51/93/10
f 52/95/11 49/108/11 43/96/11
f 53/98/12 39/113/12 41/99/12
f 51/101/13 52/114/13 41/102/13
f 42/104/14 39/115/14 53/105/14
f 51/107/15 48/111/15 49/108/15
f 53/97/16 43/96/16 45/109/16
f 54/110/17 45/109/17 48/111/17
usemtl panel1
f 43/96/18 44/116/18 45/109/18
f 45/109/18 47/117/18 48/111/18
f 49/108/18 46/118/18 43/96/18
f 48/111/18 50/119/18 49/108/18
f 43/96/18 46/118/18 44/116/18
f 45/109/18 44/116/18 47/117/18
f 49/108/18 50/119/18 46/118/18
f 48/111/18 47/117/18 50/119/18
f 50/119/19 47/117/20 57/120/20 58/121/19
f 47/117/20 44/116/21 55/122/21 57/120/20
f 46/118/22 50/119/19 58/121/19 56/123/22
f 44/116/21 46/118/22 56/123/22 55/122/21
usemtl SWITCH
f 39/124/23 40/125/23 41/126/23
f 39/124/23 42/127/23 40/125/23
