# Blender v2.79 (sub 0) OBJ File: 'shower_anim.blend'
# www.blender.org
mtllib floor.mtl
o Cube.003_Cube.001
v -3.341614 -2.004045 -47.543148
v -3.341614 -0.004045 -47.543148
v -3.341614 -2.004045 -56.040112
v -3.341614 -0.004045 -56.040112
v 14.676388 -2.004045 -47.543148
v 14.676388 -0.004045 -47.543148
v 14.676388 -2.004045 -55.455780
v 14.676388 -0.004045 -55.455780
v 2.148144 -2.004045 -47.543148
v 2.148144 -0.004045 -47.543148
v -3.341614 -2.004045 -46.476547
v -3.341614 -0.004045 -46.476547
v 2.148144 -0.004045 -46.476547
v 2.148144 -2.004045 -46.476547
v -3.341614 -2.004045 -51.791630
v -3.341614 -0.004045 -51.791630
v 5.667387 -2.004045 -55.455780
v 5.667387 -0.004045 -55.455780
v 1.162887 -2.004045 -56.040112
v 1.162887 -0.004045 -56.040112
v 14.198188 -2.004045 -51.791630
v 14.198188 -0.004045 -51.791630
v 14.198188 -2.004045 -53.915871
v 14.198188 -0.004045 -53.915871
v 8.412266 -2.004045 -47.543148
v 8.412267 -0.004045 -47.543148
v 11.544327 -2.004045 -47.543148
v 11.544327 -0.004045 -47.543148
v -4.297690 -0.004045 -51.791630
v -4.297690 -0.004045 -56.040112
v -4.297690 -2.004045 -56.040112
v -4.297690 -2.004045 -51.791630
v 1.162887 -0.004045 -57.324280
v 5.667387 -0.004045 -57.324280
v 5.667387 -2.004045 -57.324280
v 1.162887 -2.004045 -57.324280
v 14.838261 -0.004045 -55.455780
v 14.838261 -2.004045 -55.455780
v 14.838261 -2.004045 -53.915871
v 15.232031 -0.004045 -51.791630
v 15.232031 -0.004045 -47.543148
v 15.232031 -2.004045 -47.543148
v 15.232031 -2.004045 -51.791630
v 14.838261 -0.004045 -53.915871
v 11.544327 -0.004045 -45.494656
v 8.412267 -0.004045 -45.494656
v 8.412266 -2.004045 -45.494656
v 11.544327 -2.004045 -45.494656
vt 0.831193 -0.547414
vt 0.565549 0.008281
vt 0.831193 0.008281
vt 0.555846 0.563977
vt 3.058975 0.008281
vt 0.555846 0.008281
vt 0.703328 0.563977
vt 0.990578 0.008281
vt 0.703328 0.008281
vt 0.521326 0.563977
vt 0.224974 0.008281
vt 0.521326 0.008281
vt 3.334322 -0.141805
vt 5.704585 -1.159880
vt 4.096980 -2.340311
vt 0.703328 -1.159880
vt -1.666935 -0.141805
vt -0.904277 -2.340311
vt 0.762809 0.563977
vt -0.977662 0.008281
vt 0.762809 0.008281
vt 0.689423 0.563977
vt -0.835893 0.008281
vt 0.689423 0.008281
vt 0.521326 -0.547414
vt 0.224974 0.008281
vt 0.521326 0.008281
vt 2.356509 -0.117530
vt 0.831193 -0.413882
vt 0.831193 -0.117530
vt -0.835893 -0.117530
vt 0.689423 -0.413882
vt 0.689423 -0.117530
vt 0.521326 0.563977
vt 1.701757 0.008281
vt 0.521326 0.008281
vt 0.415672 0.020550
vt 1.667236 0.377353
vt 0.415672 0.377353
vt 0.831193 0.563977
vt 2.082757 0.008281
vt 0.831193 0.008281
vt 0.624887 0.563977
vt 0.034671 0.008281
vt 0.624887 0.008281
vt 0.836194 -0.141805
vt 0.881170 -0.569665
vt 0.881170 -0.141805
vt 0.521326 0.563977
vt -0.047842 0.008281
vt 0.521326 0.008281
vt 0.836194 0.563977
vt -0.034041 0.008281
vt 0.836194 0.008281
vt 0.590366 0.563977
vt 1.770797 0.008281
vt 0.590366 0.008281
vt 0.831193 0.563977
vt 0.565549 0.008281
vt 0.831193 0.008281
vt 0.831193 -1.159880
vt 0.565549 0.020550
vt 0.831193 0.020550
vt 0.831193 1.131941
vt 0.565549 -0.048490
vt 0.831193 -0.048490
vt 0.415672 0.563977
vt 1.667236 0.008281
vt 0.415672 0.008281
vt 0.497051 -0.547414
vt 1.016210 0.008281
vt 0.497051 0.008281
vt 0.659407 0.563977
vt 1.016210 0.008281
vt 0.659407 0.008281
vt -0.695719 0.020550
vt 0.555846 0.377353
vt 0.555846 -0.141805
vt 0.590366 0.563977
vt -0.590064 0.008281
vt 0.590366 0.008281
vt 0.497051 0.563977
vt 0.069191 0.008281
vt 0.497051 0.008281
vt 0.836194 -0.117530
vt 0.990578 1.062901
vt 0.990578 -0.117530
vt 0.836194 -1.228920
vt 0.990578 -0.048490
vt 0.703328 -0.048490
vt 0.836194 0.563977
vt 0.881170 0.008281
vt 0.836194 0.008281
vt 0.703328 -0.547414
vt 0.881170 0.008281
vt 0.703328 0.008281
vt 0.836194 -0.547414
vt 0.990578 0.008281
vt 0.836194 0.008281
vt 0.836194 0.413890
vt 0.881170 -0.013970
vt 0.703328 -0.013970
vt 0.521654 0.563977
vt -0.348582 0.008281
vt 0.521654 0.008281
vt 1.633044 -0.117530
vt 0.762809 -0.686699
vt 0.762809 -0.117530
vt -0.348582 -0.117530
vt 0.521654 -0.686699
vt 0.521654 -0.117530
vt 0.521326 -0.547414
vt -0.047842 0.008281
vt 0.521326 0.008281
vt 0.565549 -0.547414
vt 3.058975 0.563977
vt 0.990578 0.563977
vt 0.224974 0.563977
vt 2.082757 0.020550
vt 5.837451 -0.141805
vt 5.704585 -0.569665
vt 2.356509 -2.340311
vt 0.831193 -2.340311
vt 5.837451 -2.340311
vt 4.967216 -2.340311
vt 0.703328 -0.569665
vt -2.918500 0.020550
vt -2.644748 -2.340311
vt -4.170064 0.020550
vt -4.170064 -1.159880
vt -4.170064 -2.340311
vt -0.034041 -2.340311
vt 0.836194 -2.340311
vt -0.977662 0.563977
vt -0.835893 0.563977
vt 0.224974 -0.547414
vt 2.356509 -0.413882
vt -0.835893 -0.413882
vt 1.701757 0.563977
vt 1.667236 -0.141805
vt 2.082757 0.563977
vt 0.034671 0.563977
vt -0.047842 0.563977
vt -0.034041 0.563977
vt 1.770797 0.563977
vt 0.565549 0.563977
vt 0.565549 -1.159880
vt 0.565549 1.131941
vt 1.667236 0.563977
vt 1.016210 -0.547414
vt 1.016210 0.563977
vt -0.695719 0.377353
vt -0.590064 0.563977
vt 0.069191 0.563977
vt 0.703328 1.062901
vt 0.990578 -1.228920
vt 0.881170 0.563977
vt 0.881170 -0.547414
vt 0.990578 -0.547414
vt 0.881170 0.413890
vt -0.348582 0.563977
vt 1.633044 -0.686699
vt -0.348582 -0.686699
vt -0.047842 -0.547414
vn 0.0000 0.0000 -1.0000
vn 1.0000 0.0000 0.0000
vn 0.0000 -1.0000 0.0000
vn 0.0000 1.0000 0.0000
vn 0.0000 0.0000 1.0000
vn -1.0000 0.0000 0.0000
usemtl None
s off
f 3/1/1 30/2/1 4/3/1
f 18/4/1 7/5/1 17/6/1
f 22/7/1 43/8/1 21/9/1
f 10/10/2 14/11/2 9/12/2
f 17/13/3 21/14/3 25/15/3
f 22/16/4 18/17/4 26/18/4
f 26/19/5 9/20/5 25/21/5
f 13/22/5 11/23/5 14/24/5
f 1/25/6 12/26/6 2/27/6
f 9/28/3 11/29/3 1/30/3
f 2/31/4 13/32/4 10/33/4
f 2/34/6 15/35/6 1/36/6
f 20/37/4 34/38/4 33/39/4
f 4/40/1 19/41/1 3/42/1
f 24/43/2 21/44/2 23/45/2
f 8/46/4 44/47/4 37/48/4
f 28/49/2 48/50/2 27/51/2
f 6/52/5 27/53/5 5/54/5
f 29/55/6 31/56/6 32/57/6
f 16/58/5 32/59/5 15/60/5
f 15/61/3 31/62/3 3/63/3
f 4/64/4 29/65/4 16/66/4
f 33/67/1 35/68/1 36/69/1
f 17/70/2 34/71/2 18/72/2
f 20/73/6 36/74/6 19/75/6
f 19/76/3 35/77/3 17/78/3
f 40/79/2 42/80/2 43/81/2
f 37/82/2 39/83/2 38/84/2
f 5/85/3 43/86/3 42/87/3
f 6/88/4 40/89/4 22/90/4
f 8/91/1 38/92/1 7/93/1
f 23/94/5 44/95/5 24/96/5
f 5/97/5 41/98/5 6/99/5
f 7/100/3 39/101/3 23/102/3
f 45/103/5 47/104/5 48/105/5
f 27/106/3 47/107/3 25/108/3
f 26/109/4 45/110/4 28/111/4
f 25/112/6 46/113/6 26/114/6
f 3/1/1 31/115/1 30/2/1
f 18/4/1 8/116/1 7/5/1
f 22/7/1 40/117/1 43/8/1
f 10/10/2 13/118/2 14/11/2
f 15/61/3 3/63/3 19/119/3
f 17/13/3 7/120/3 23/121/3
f 15/61/3 19/119/3 9/122/3
f 19/119/3 17/13/3 9/122/3
f 9/122/3 1/123/3 15/61/3
f 5/124/3 27/125/3 21/14/3
f 27/125/3 25/15/3 21/14/3
f 25/15/3 9/122/3 17/13/3
f 17/13/3 23/121/3 21/14/3
f 24/126/4 8/46/4 18/17/4
f 18/17/4 20/127/4 10/128/4
f 20/127/4 4/129/4 16/130/4
f 16/130/4 2/131/4 10/128/4
f 20/127/4 16/130/4 10/128/4
f 22/16/4 24/126/4 18/17/4
f 28/132/4 6/133/4 22/16/4
f 10/128/4 26/18/4 18/17/4
f 26/18/4 28/132/4 22/16/4
f 26/19/5 10/134/5 9/20/5
f 13/22/5 12/135/5 11/23/5
f 1/25/6 11/136/6 12/26/6
f 9/28/3 14/137/3 11/29/3
f 2/31/4 12/138/4 13/32/4
f 2/34/6 16/139/6 15/35/6
f 20/37/4 18/140/4 34/38/4
f 4/40/1 20/141/1 19/41/1
f 24/43/2 22/142/2 21/44/2
f 8/46/4 24/126/4 44/47/4
f 28/49/2 45/143/2 48/50/2
f 6/52/5 28/144/5 27/53/5
f 29/55/6 30/145/6 31/56/6
f 16/58/5 29/146/5 32/59/5
f 15/61/3 32/147/3 31/62/3
f 4/64/4 30/148/4 29/65/4
f 33/67/1 34/149/1 35/68/1
f 17/70/2 35/150/2 34/71/2
f 20/73/6 33/151/6 36/74/6
f 19/76/3 36/152/3 35/77/3
f 40/79/2 41/153/2 42/80/2
f 37/82/2 44/154/2 39/83/2
f 5/85/3 21/155/3 43/86/3
f 6/88/4 41/156/4 40/89/4
f 8/91/1 37/157/1 38/92/1
f 23/94/5 39/158/5 44/95/5
f 5/97/5 42/159/5 41/98/5
f 7/100/3 38/160/3 39/101/3
f 45/103/5 46/161/5 47/104/5
f 27/106/3 48/162/3 47/107/3
f 26/109/4 46/163/4 45/110/4
f 25/112/6 47/164/6 46/113/6
