# Blender v2.79 (sub 0) OBJ File: 'bathroom_5_gym_lockerroom.blend'
# www.blender.org
mtllib floor.mtl
o Cube.034_Cube.046
v 24.666519 0.000000 -17.779747
v 51.363792 0.000000 10.086207
v 24.666519 0.000000 -33.388584
v 138.276215 0.000000 10.086207
v 138.276215 0.000000 -10.086207
v 52.849651 0.000000 -10.086207
v 145.207565 0.000000 10.086207
v 152.890030 0.000000 10.086207
v 145.207565 0.000000 17.606133
v 152.890030 0.000000 17.606133
v 137.289780 0.000000 30.227194
v 137.289780 0.000000 53.030907
v 80.080498 0.000000 30.227194
v 80.080498 0.000000 53.030907
v 80.080498 0.000000 63.630905
v 80.080498 0.000000 58.286793
v 80.080498 0.000000 38.581310
v 137.289780 0.000000 41.839577
v 160.807816 0.000000 17.606133
v 137.289780 0.000000 17.606133
v 136.790359 0.000000 -10.086207
v 136.790359 0.000000 10.086207
v 52.849651 0.000000 10.086207
v 51.363792 0.000000 -10.086207
v 159.821365 0.000000 10.086207
v 24.666519 0.000000 -15.424324
v 89.525375 0.000000 53.030907
v 127.844894 0.000000 53.030907
v 54.092422 14.936584 11.063535
v 54.092422 15.141392 11.173006
v 54.092422 15.191136 11.233620
v 54.092422 15.228100 11.302774
v 54.092422 15.250862 11.377812
v 54.092422 15.258549 11.455849
v 54.092422 15.250862 11.533884
v 54.092422 15.228101 11.608922
v 54.092422 15.191136 11.678077
v 54.092422 15.141392 11.738691
v 54.092422 15.080777 11.788437
v 54.092422 15.011621 11.825400
v 54.092422 14.936584 11.848163
v 54.092422 14.858548 11.855848
v 54.092422 14.780512 11.848163
v 54.092422 14.705475 11.825400
v 54.092422 14.636321 11.788437
v 54.092422 14.575706 11.738691
v 54.092422 14.525960 11.678077
v 54.092422 14.488997 11.608922
v 54.092422 14.466234 11.533885
v 54.092422 14.458549 11.455849
v 54.092422 14.466234 11.377812
v 54.092422 15.011621 11.086297
v 54.092422 14.488997 11.302775
v 54.092422 14.525960 11.233621
v 54.092422 14.575706 11.173006
v 54.092422 14.636321 11.123260
v 54.092422 14.705475 11.086297
v 54.092422 15.080776 11.123260
v 54.092422 14.780512 11.063535
v 54.092422 14.858548 11.055849
v 108.486786 20.414608 72.481697
v 108.549942 20.420830 72.481697
v 108.610664 20.439249 72.481697
v 108.666634 20.469166 72.481697
v 108.715683 20.509422 72.481697
v 108.755943 20.558475 72.481697
v 108.785858 20.614443 72.481697
v 108.804283 20.675169 72.481697
v 108.810501 20.738321 72.481697
v 108.804283 20.801476 72.481697
v 108.785858 20.862202 72.481697
v 108.755943 20.918169 72.481697
v 108.715683 20.967222 72.481697
v 108.666634 21.007481 72.481705
v 108.610664 21.037395 72.481705
v 108.549942 21.055815 72.481705
v 108.486786 21.062035 72.481705
v 108.423630 21.055815 72.481705
v 108.362907 21.037395 72.481705
v 108.306938 21.007481 72.481705
v 108.257889 20.967222 72.481697
v 108.217621 20.918169 72.481697
v 108.187714 20.862202 72.481697
v 108.169289 20.801476 72.481697
v 108.163071 20.738321 72.481697
v 108.169296 20.675169 72.481697
v 108.187714 20.614443 72.481697
v 108.217621 20.558475 72.481697
v 108.257889 20.509422 72.481697
v 108.306938 20.469166 72.481697
v 108.362907 20.439249 72.481697
v 108.423630 20.420826 72.481697
v -11.887016 0.000000 17.779747
v 24.666519 0.000000 17.779747
v -11.887016 0.000000 -17.779747
v 24.666519 0.000000 -17.779747
v 51.363792 0.000000 10.086207
v 24.666519 0.000000 33.388584
v 24.666519 0.000000 -33.388584
v 138.276215 0.000000 10.086207
v 138.276215 0.000000 -10.086207
v 145.207565 0.000000 10.086207
v 152.890030 0.000000 10.086207
v 145.207565 0.000000 17.606133
v 152.890030 0.000000 17.606133
v 160.807816 0.000000 41.839577
v 137.289780 0.000000 30.227194
v 137.289780 0.000000 53.030907
v 80.080498 0.000000 30.227194
v 80.080498 0.000000 53.030907
v 50.204048 0.000000 38.581310
v 45.251907 0.000000 33.386398
v 19.324228 0.000000 58.286793
v 19.324228 0.000000 38.581310
v 45.251907 0.000000 58.286793
v 80.080498 0.000000 58.286793
v 80.080498 0.000000 38.581310
v 137.289780 0.000000 41.839577
v 160.807816 0.000000 17.606133
v 137.289780 0.000000 17.606133
v 136.790359 0.000000 23.168337
v 52.849651 0.000000 23.168337
v 136.790359 0.000000 10.086207
v 52.849651 0.000000 10.086207
v 51.363792 0.000000 -10.086207
v 138.276215 0.000000 -30.507893
v 159.821365 0.000000 -30.507893
v 159.821365 0.000000 -10.086207
v 159.821365 0.000000 10.086207
v 51.363792 0.000000 33.388584
v 51.363792 0.000000 -33.388584
v 89.525375 0.000000 53.030907
v 127.844894 0.000000 53.030907
v 94.064850 0.000000 65.299736
v 123.305420 0.000000 65.299736
v 104.946228 0.000000 72.305832
v 112.424042 0.000000 72.305832
v 91.364738 -0.490984 54.040321
v 126.005531 -0.490984 54.040321
v 95.468414 -0.490984 65.131325
v 121.901855 -0.490984 65.131325
v 105.305168 -0.490984 71.464828
v 112.065102 -0.490984 71.464828
vt 0.181896 0.543104
vt 42.895180 0.543104
vt 43.638107 0.543104
vt 0.638107 0.456896
vt -42.075172 0.456896
vt -42.818104 0.456896
vt 0.410683 0.456896
vt -6.896217 0.456896
vt -10.361893 0.456896
vt 0.945015 0.696934
vt -6.855110 0.696934
vt -2.896217 0.696934
vt 0.144890 0.580212
vt 0.144890 6.386403
vt 0.144890 12.696934
vt 0.540249 0.984547
vt 0.540249 8.209345
vt 0.540249 12.386403
vt 0.833260 0.194292
vt 0.833260 -7.610126
vt 0.833260 -8.787838
vt 0.540249 0.684547
vt 0.540249 5.984547
vt 0.540249 3.356604
vt 0.144890 0.984547
vt -23.737312 0.984547
vt -4.577553 0.984547
vt 0.572076 -0.070726
vt 0.630654 0.070696
vt 0.913497 -0.212147
vt 0.774971 1.027907
vt 0.584648 0.837584
vt 0.833317 0.734583
vt 0.924826 0.543104
vt -0.104820 0.456896
vt -3.054985 0.456896
vt 4.903908 0.696934
vt 0.144890 -5.015453
vt 0.540249 -4.315453
vt -28.459751 0.984547
vt 0.660962 0.095568
vt 0.695539 0.114050
vt 0.733058 0.125431
vt 0.772076 0.129274
vt 0.811094 0.125431
vt 0.913497 0.070696
vt 0.848613 0.114050
vt 0.883190 0.095568
vt 0.938370 0.040388
vt 0.956851 0.005811
vt 0.968233 -0.031708
vt 0.972075 -0.070726
vt 0.968233 -0.109744
vt 0.956851 -0.147263
vt 0.938370 -0.181839
vt 0.883190 -0.237020
vt 0.848612 -0.255501
vt 0.811094 -0.266883
vt 0.772076 -0.270726
vt 0.733057 -0.266883
vt 0.695539 -0.255501
vt 0.660962 -0.237020
vt 0.630654 -0.212147
vt 0.605782 -0.181839
vt 0.587300 -0.147263
vt 0.575919 -0.109744
vt 0.575919 -0.031708
vt 0.587300 0.005811
vt 0.605782 0.040388
vt 0.711815 0.710413
vt 0.743393 0.707304
vt 0.774971 0.710415
vt 0.805332 0.719625
vt 0.857841 0.754711
vt 0.877972 0.779238
vt 0.902142 0.837584
vt 0.892929 0.807221
vt 0.905251 0.869161
vt 0.902142 0.900738
vt 0.892929 0.931101
vt 0.877972 0.959085
vt 0.857841 0.983611
vt 0.833317 1.003740
vt 0.805332 1.018698
vt 0.743393 1.031017
vt 0.653469 1.003740
vt 0.711815 1.027907
vt 0.681454 1.018698
vt 0.628944 0.983611
vt 0.608810 0.959085
vt 0.593857 0.931101
vt 0.584644 0.900738
vt 0.581535 0.869161
vt 0.593857 0.807221
vt 0.628944 0.754711
vt 0.608810 0.779238
vt 0.653469 0.734583
vt 0.681454 0.719625
vt 18.833260 0.610126
vt 0.556492 18.389874
vt 0.556492 0.610126
vt 0.833260 -17.389874
vt 14.181896 -3.456896
vt 0.833260 0.389874
vt -13.166740 -3.389874
vt 0.181896 -11.194292
vt 0.181896 0.456896
vt 14.181896 8.194292
vt 0.833260 8.194292
vt 0.181896 -9.543104
vt 43.638107 0.543104
vt 0.181896 0.543104
vt 0.638107 -9.543104
vt 11.410683 0.543104
vt 0.638107 0.543104
vt 0.638107 10.753946
vt -41.075172 0.456896
vt 0.895180 -6.084168
vt 0.895180 0.456896
vt -2.896217 0.456896
vt 0.945015 -3.303066
vt 0.945015 0.456896
vt -10.855110 0.696934
vt 0.903908 -11.419788
vt 0.903908 0.696934
vt 0.144890 12.386403
vt -28.459751 0.984547
vt 0.144890 0.984547
vt -10.166740 0.805708
vt 2.602024 -1.790655
vt 0.125954 0.806801
vt 13.125954 0.356604
vt 0.162114 10.209345
vt 0.162114 0.356604
vt -16.874046 -9.643396
vt 0.540249 -9.643396
vt 0.540249 -7.015453
vt 18.833260 18.389874
vt 14.181896 -13.543104
vt -13.166740 -11.194292
vt 43.638107 -9.543104
vt 11.410683 -9.543104
vt 11.410683 10.753946
vt -41.075172 -6.084168
vt -2.896217 -3.303066
vt -10.855110 -11.419788
vt -28.459751 12.386403
vt -12.837886 -1.790655
vt 15.602024 10.209345
vt 0.540249 0.209345
vt -14.397976 0.209345
vt 2.532425 -5.149868
vt 1.182369 0.479839
vt 0.262688 0.984547
vt 4.712021 0.347084
vt 1.152584 0.767586
vt 0.973114 0.347084
vt -16.817631 0.479839
vt -1.549072 -5.065662
vt 0.502766 0.479839
vt 0.450928 0.934338
vt -7.847416 -2.232414
vt -4.467449 -2.232414
vt 5.973114 -2.652916
vt 1.234207 0.934338
vt 0.532425 0.850132
vt 0.152710 0.850132
vt 1.502766 6.479839
vt -0.549072 0.934338
vt 0.712021 0.347084
vt 5.450928 3.934338
vt 0.532551 0.767586
vt -18.737312 0.984547
vt -0.497234 0.479839
vt 0.422447 0.984547
vt 3.234207 -5.065662
vt 4.532551 0.767586
vt -14.765793 -5.065662
vt -12.765793 0.934338
vt 6.152584 -2.232414
vt 2.422447 6.984547
vt 6.152710 3.850132
vt -17.817631 0.479839
vn 0.0000 0.0000 1.0000
vn 0.0000 -1.0000 0.0000
vn -1.0000 0.0000 0.0000
vn -1.0000 0.0004 0.0000
vn -1.0000 -0.0003 0.0000
vn -1.0000 0.0001 0.0000
vn -1.0000 -0.0002 0.0000
vn -1.0000 -0.0004 0.0000
vn -1.0000 0.0008 0.0000
vn -1.0000 -0.0001 0.0000
vn -1.0000 0.0002 0.0000
vn 0.0002 -0.0000 1.0000
vn 0.0008 0.0000 1.0000
vn -0.0012 0.0000 1.0000
vn -0.0008 0.0000 1.0000
vn 0.0000 0.0001 1.0000
vn 0.0000 -0.0004 1.0000
vn 0.0003 0.0000 1.0000
vn 0.0000 -0.0003 1.0000
vn 0.0004 0.0000 1.0000
vn -0.0003 0.0000 1.0000
vn 0.0001 -0.0000 1.0000
vn -0.0001 0.0000 1.0000
vn 0.0000 1.0000 0.0000
vn 0.3154 0.9417 -0.1167
vn 0.0000 0.8636 -0.5042
vn 0.2589 0.8782 -0.4022
vn -0.3154 0.9417 -0.1167
vn -0.2589 0.8782 -0.4022
vn 0.0000 0.8993 0.4374
usemtl Material
s off
f 24/1/1 21/2/1 5/3/1
f 4/4/1 23/5/1 2/6/1
f 25/7/1 7/8/1 4/9/1
f 10/10/1 20/11/1 9/12/1
f 18/13/1 11/14/1 20/15/1
f 14/16/1 17/17/1 13/18/1
f 3/19/2 1/20/2 26/21/2
f 15/22/1 14/23/1 16/24/1
f 12/25/1 27/26/1 28/27/1
f 42/28/3 38/29/3 55/30/3
f 76/31/1 86/32/1 64/33/1
f 24/1/1 6/34/1 21/2/1
f 4/4/1 22/35/1 23/5/1
f 25/7/1 8/36/1 7/8/1
f 10/10/1 19/37/1 20/11/1
f 18/13/1 12/38/1 11/14/1
f 14/16/1 15/39/1 17/17/1
f 12/25/1 14/40/1 27/26/1
f 38/29/4 37/41/4 36/42/4
f 36/42/3 35/43/3 38/29/3
f 35/43/5 34/44/5 38/29/5
f 34/44/3 33/45/3 30/46/3
f 33/45/3 32/47/3 30/46/3
f 32/47/4 31/48/4 30/46/4
f 30/46/4 58/49/4 52/50/4
f 52/50/6 29/51/6 60/52/6
f 60/52/7 59/53/7 57/54/7
f 57/54/3 56/55/3 60/52/3
f 56/55/3 55/30/3 60/52/3
f 55/30/8 54/56/8 53/57/8
f 53/57/9 51/58/9 50/59/9
f 50/59/9 49/60/9 48/61/9
f 48/61/8 47/62/8 46/63/8
f 46/63/3 45/64/3 42/28/3
f 45/64/3 44/65/3 42/28/3
f 44/65/10 43/66/10 42/28/10
f 42/28/11 41/67/11 40/68/11
f 40/68/4 39/69/4 38/29/4
f 30/46/10 52/50/10 60/52/10
f 55/30/3 53/57/3 46/63/3
f 53/57/3 50/59/3 46/63/3
f 50/59/3 48/61/3 46/63/3
f 42/28/3 40/68/3 38/29/3
f 38/29/3 34/44/3 30/46/3
f 30/46/3 60/52/3 38/29/3
f 60/52/3 55/30/3 38/29/3
f 46/63/3 42/28/3 55/30/3
f 92/70/1 61/71/1 62/72/1
f 62/72/1 63/73/1 64/33/1
f 64/33/12 65/74/12 76/31/12
f 65/74/13 66/75/13 68/76/13
f 66/75/14 67/77/14 68/76/14
f 68/76/1 69/78/1 70/79/1
f 70/79/15 71/80/15 68/76/15
f 71/80/1 72/81/1 68/76/1
f 72/81/16 73/82/16 76/31/16
f 73/82/17 74/83/17 76/31/17
f 74/83/18 75/84/18 76/31/18
f 76/31/1 77/85/1 80/86/1
f 77/85/1 78/87/1 80/86/1
f 78/87/1 79/88/1 80/86/1
f 80/86/19 81/89/19 76/31/19
f 81/89/1 82/90/1 83/91/1
f 86/32/20 83/91/20 84/92/20
f 81/89/12 83/91/12 86/32/12
f 84/92/1 85/93/1 86/32/1
f 86/32/1 87/94/1 89/95/1
f 87/94/1 88/96/1 89/95/1
f 89/95/20 90/97/20 86/32/20
f 90/97/21 91/98/21 92/70/21
f 92/70/1 62/72/1 86/32/1
f 62/72/1 64/33/1 86/32/1
f 65/74/1 68/76/1 72/81/1
f 76/31/22 65/74/22 72/81/22
f 76/31/23 81/89/23 86/32/23
f 92/70/23 86/32/23 90/97/23
usemtl floor
f 94/99/24 95/100/24 93/101/24
f 94/102/24 125/103/24 96/104/24
f 94/105/24 130/106/24 97/107/24
f 96/104/24 131/108/24 99/109/24
f 97/110/24 101/111/24 125/112/24
f 100/113/24 128/114/24 101/115/24
f 128/114/24 126/116/24 101/115/24
f 124/117/24 121/118/24 123/119/24
f 102/120/24 105/121/24 103/122/24
f 120/123/24 106/124/24 119/125/24
f 107/126/24 110/127/24 108/128/24
f 98/129/24 111/130/24 112/131/24
f 115/132/24 114/133/24 113/134/24
f 115/135/24 116/136/24 110/137/24
f 94/99/24 96/138/24 95/100/24
f 94/102/24 97/139/24 125/103/24
f 94/105/24 98/140/24 130/106/24
f 96/104/24 125/103/24 131/108/24
f 97/110/24 100/141/24 101/111/24
f 100/113/24 129/142/24 128/114/24
f 128/114/24 127/143/24 126/116/24
f 124/117/24 122/144/24 121/118/24
f 102/120/24 104/145/24 105/121/24
f 120/123/24 118/146/24 106/124/24
f 107/126/24 109/147/24 110/127/24
f 98/129/24 114/148/24 111/130/24
f 115/132/24 111/149/24 114/133/24
f 110/137/24 117/150/24 111/151/24
f 111/151/24 115/135/24 110/137/24
usemtl floor2
f 134/152/25 138/153/25 132/154/25
f 137/155/26 142/156/26 136/157/26
f 138/158/24 141/159/24 139/160/24
f 141/161/24 142/162/24 143/163/24
f 136/164/27 140/165/27 134/166/27
f 135/167/28 139/168/28 141/169/28
f 137/170/29 141/171/29 143/172/29
f 132/173/30 139/174/30 133/175/30
f 134/152/25 140/176/25 138/153/25
f 137/155/26 143/177/26 142/156/26
f 138/158/24 140/178/24 141/159/24
f 141/161/24 140/179/24 142/162/24
f 136/164/27 142/180/27 140/165/27
f 135/167/28 133/181/28 139/168/28
f 137/170/29 135/182/29 141/171/29
f 132/173/30 138/183/30 139/174/30
