# Blender v2.79 (sub 0) OBJ File: 'bathroom_3_master.blend'
# www.blender.org
mtllib soapbox.mtl
o Cube.004_Cube.011
v 2.140343 3.619587 7.069340
v 2.140343 3.783737 7.069340
v 1.824054 3.619587 7.264677
v 1.824054 3.783737 7.264677
v 1.784905 3.619587 6.493816
v 1.784905 3.783737 6.493816
v 1.468616 3.619587 6.689153
v 1.468616 3.783737 6.689153
v 1.825693 3.621879 7.263665
v 2.138705 3.621879 7.070352
v 2.138705 3.781446 7.070352
v 1.825693 3.781446 7.263665
v 1.625211 3.621879 6.939046
v 1.938223 3.621879 6.745733
v 1.938223 3.781446 6.745733
v 1.625211 3.781446 6.939046
v 2.256559 3.619587 7.102618
v 2.256559 3.783737 7.102618
v 2.254921 3.621879 7.103630
v 2.254921 3.781446 7.103630
v 1.840195 3.783737 7.402945
v 1.840195 3.619587 7.402945
v 1.841834 3.781446 7.401933
v 1.841834 3.621879 7.401933
v 2.186563 3.818930 7.144177
v 1.870273 3.818930 7.339515
v 2.184924 3.816639 7.145189
v 1.871912 3.816639 7.338503
v 1.892045 3.619587 7.374766
v 2.208333 3.619587 7.179430
v 1.893683 3.621879 7.373755
v 2.206695 3.621879 7.180441
vt 0.804531 0.558778
vt 0.801725 0.558984
vt 0.801699 0.473354
vt 0.804504 0.473148
vt 0.402219 0.433980
vt 0.201110 0.433961
vt 0.201175 0.000000
vt 0.402285 0.000019
vt 0.804504 1.000000
vt 0.603395 1.000000
vt 0.603394 0.799003
vt 0.804504 0.799003
vt 0.603473 0.000071
vt 0.804583 0.000000
vt 0.804583 0.425536
vt 0.603473 0.425606
vt 0.201110 0.083032
vt 0.201110 0.517108
vt 0.000000 0.517108
vt 0.000000 0.083032
vt 0.603394 0.000000
vt 0.603394 0.434075
vt 0.402285 0.434075
vt 0.402285 0.000000
vt 0.203258 0.572068
vt 0.402285 0.572068
vt 0.402285 0.816904
vt 0.203258 0.816904
vt 0.000111 0.761856
vt 0.002920 0.761880
vt 0.002810 0.818211
vt 0.000000 0.818188
vt 0.804583 0.282600
vt 0.806923 0.284160
vt 0.806923 0.354283
vt 0.804583 0.352723
vt 0.804531 0.674145
vt 0.807340 0.674169
vt 0.807340 0.757179
vt 0.804531 0.757155
vt 1.000000 0.997918
vt 0.804504 0.997918
vt 0.804504 0.799003
vt 1.000000 0.799003
vt 0.601311 0.735356
vt 0.402285 0.735356
vt 0.402285 0.490520
vt 0.601311 0.490520
vt 0.606230 0.558984
vt 0.801641 0.799003
vt 0.606146 0.799003
vt 0.198415 0.761880
vt 0.002934 0.517108
vt 0.198429 0.517108
vt 0.602353 0.490520
vt 0.602353 0.691517
vt 0.601311 0.688711
vt 0.601311 0.493325
vt 0.804504 0.473077
vt 0.603394 0.473148
vt 0.201220 0.761856
vt 0.201109 0.818187
vt 0.198305 0.818211
vt 0.602353 0.691517
vt 0.602353 0.490520
vt 0.603394 0.493325
vt 0.603394 0.688711
vt 0.402285 0.515624
vt 0.201175 0.515605
vt 0.603421 0.558778
vt 0.603394 0.473148
vt 0.606203 0.473354
vt 0.804583 0.200997
vt 0.804583 0.000000
vt 0.807390 0.001041
vt 0.807390 0.199956
vt 0.203258 0.515624
vt 0.402285 0.515624
vt 0.804583 0.356003
vt 0.806797 0.354283
vt 0.806797 0.425287
vt 0.804583 0.427007
vt 0.603394 0.490520
vt 0.402285 0.490520
vt 0.807338 0.473148
vt 0.807338 0.674145
vt 0.804531 0.673104
vt 0.804531 0.474189
vt 0.601311 0.818388
vt 0.402285 0.818388
vt 0.807391 0.282600
vt 0.804583 0.282396
vt 0.804583 0.200997
vt 0.807391 0.201202
vt 0.000000 0.000000
vt 0.201110 0.000000
vn 0.7902 -0.6058 -0.0923
vn -0.8508 0.0000 0.5255
vn -0.5255 0.0000 -0.8508
vn 0.8508 0.0000 -0.5255
vn 0.0000 -1.0000 -0.0000
vn 0.0000 1.0000 0.0000
vn -0.2338 0.5278 0.8165
vn 0.7617 -0.6232 -0.1774
vn -0.6513 0.6434 0.4022
vn 0.5255 0.0000 0.8508
vn 0.5252 0.0000 0.8510
vn 0.2753 0.0000 -0.9614
vn -0.2338 -0.5278 0.8166
vn -0.2753 0.0000 0.9614
vn -0.9933 0.0000 0.1159
vn 0.7902 0.6058 -0.0923
vn 0.9933 0.0000 -0.1159
vn 0.5254 0.0000 0.8508
vn 0.1952 -0.9284 0.3161
vn -0.4999 -0.6231 0.6016
vn -0.1952 0.9284 -0.3161
vn 0.6513 0.6434 -0.4023
usemtl box
s off
f 3/1/1 9/2/1 24/3/1 22/4/1
f 3/5/2 4/6/2 8/7/2 7/8/2
f 7/9/3 8/10/3 6/11/3 5/12/3
f 5/13/4 6/14/4 2/15/4 1/16/4
f 3/17/5 7/18/5 5/19/5 1/20/5
f 8/21/6 4/22/6 2/23/6 6/24/6
f 11/25/5 12/26/5 16/27/5 15/28/5
f 2/29/7 11/30/7 20/31/7 18/32/7
f 11/33/8 2/34/8 25/35/8 27/36/8
f 9/37/9 3/38/9 29/39/9 31/40/9
f 14/41/10 15/42/10 16/43/10 13/44/10
f 9/45/6 10/46/6 14/47/6 13/48/6
f 12/49/4 9/2/4 13/50/4 16/51/4
f 10/52/2 11/30/2 15/53/2 14/54/2
f 17/55/11 18/56/11 20/57/11 19/58/11
f 1/16/12 2/15/12 18/59/12 17/60/12
f 10/52/13 1/61/13 17/62/13 19/63/13
f 11/30/14 10/52/14 19/63/14 20/31/14
f 21/64/10 22/65/10 24/66/10 23/67/10
f 4/6/15 3/5/15 22/68/15 21/69/15
f 12/49/16 4/70/16 21/71/16 23/72/16
f 9/2/17 12/49/17 23/72/17 24/3/17
f 25/73/18 26/74/18 28/75/18 27/76/18
f 12/26/19 11/25/19 27/77/19 28/78/19
f 4/79/20 12/80/20 28/81/20 26/82/20
f 2/23/21 4/22/21 26/83/21 25/84/21
f 29/85/10 30/86/10 32/87/10 31/88/10
f 10/46/6 9/45/6 31/89/6 32/90/6
f 1/91/22 10/92/22 32/93/22 30/94/22
f 3/17/5 1/20/5 30/95/5 29/96/5
