# Blender v2.79 (sub 0) OBJ File: 'soap_1.blend'
# www.blender.org
mtllib soap.mtl
o soap_bar_high_Cube.002
v -0.480527 0.560731 -0.206339
v -0.478411 0.538865 -0.214665
v -0.502403 0.562854 -0.214667
v -0.468224 0.560741 -0.194027
v -0.459898 0.562857 -0.172160
v -0.459896 0.538865 -0.196150
v -0.480537 0.573044 -0.194036
v -0.502403 0.581370 -0.196152
v -0.478414 0.581372 -0.172160
v -0.502249 0.539019 -0.224590
v -0.449973 0.539019 -0.172314
v -0.502249 0.591294 -0.172314
v -0.468224 0.470709 -0.194036
v -0.459898 0.492576 -0.196152
v -0.459896 0.468586 -0.172160
v -0.480537 0.470700 -0.206339
v -0.502403 0.468583 -0.214665
v -0.478414 0.492575 -0.214667
v -0.480527 0.458396 -0.194027
v -0.478411 0.450071 -0.172160
v -0.502403 0.450069 -0.196150
v -0.449973 0.492422 -0.172314
v -0.502249 0.492422 -0.224590
v -0.502249 0.440146 -0.172314
v -0.468224 0.560731 0.051646
v -0.459898 0.538865 0.053763
v -0.459896 0.562854 0.029771
v -0.480537 0.560741 0.063950
v -0.502403 0.562857 0.072275
v -0.478414 0.538865 0.072277
v -0.480527 0.573044 0.051637
v -0.478411 0.581370 0.029770
v -0.502403 0.581372 0.053760
v -0.449973 0.539019 0.029924
v -0.502249 0.539019 0.082200
v -0.502249 0.591294 0.029924
v -0.480527 0.470709 0.063950
v -0.478411 0.492576 0.072275
v -0.502403 0.468586 0.072277
v -0.468224 0.470700 0.051637
v -0.459898 0.468583 0.029770
v -0.459896 0.492575 0.053760
v -0.480537 0.458396 0.051646
v -0.502403 0.450071 0.053763
v -0.478414 0.450069 0.029771
v -0.502249 0.492422 0.082200
v -0.449973 0.492422 0.029924
v -0.502249 0.440146 0.029924
v -0.976465 0.560731 -0.194036
v -0.984791 0.538865 -0.196152
v -0.984793 0.562854 -0.172160
v -0.964152 0.560741 -0.206339
v -0.942286 0.562857 -0.214665
v -0.966275 0.538865 -0.214667
v -0.964162 0.573044 -0.194027
v -0.966278 0.581370 -0.172160
v -0.942286 0.581372 -0.196150
v -0.994715 0.539019 -0.172314
v -0.942440 0.539019 -0.224590
v -0.942440 0.591294 -0.172314
v -0.964162 0.470709 -0.206339
v -0.966278 0.492576 -0.214665
v -0.942286 0.468586 -0.214667
v -0.976465 0.470700 -0.194027
v -0.984791 0.468583 -0.172160
v -0.984793 0.492575 -0.196150
v -0.964152 0.458396 -0.194036
v -0.942286 0.450071 -0.196152
v -0.966275 0.450069 -0.172160
v -0.942440 0.492422 -0.224590
v -0.994715 0.492422 -0.172314
v -0.942440 0.440146 -0.172314
v -0.976465 0.560741 0.051637
v -0.984791 0.562857 0.029770
v -0.984793 0.538865 0.053760
v -0.964152 0.573044 0.051646
v -0.942286 0.581370 0.053763
v -0.966275 0.581372 0.029771
v -0.964162 0.560731 0.063950
v -0.966278 0.538865 0.072275
v -0.942286 0.562854 0.072277
v -0.994715 0.539019 0.029924
v -0.942440 0.591294 0.029924
v -0.942440 0.539019 0.082200
v -0.976465 0.470709 0.051646
v -0.984791 0.492576 0.053763
v -0.984793 0.468586 0.029771
v -0.964152 0.470700 0.063950
v -0.942286 0.468583 0.072275
v -0.966275 0.492575 0.072277
v -0.964162 0.458396 0.051637
v -0.966278 0.450071 0.029770
v -0.942286 0.450069 0.053760
v -0.994715 0.492422 0.029924
v -0.942440 0.492422 0.082200
v -0.942440 0.440146 0.029924
vt 0.582560 0.153503
vt 0.593141 0.181952
vt 0.563150 0.197264
vt 0.547106 0.160103
vt 0.614603 0.149689
vt 0.614200 0.177133
vt 0.882685 0.452685
vt 0.910750 0.440362
vt 0.927795 0.470094
vt 0.890904 0.487215
vt 0.925873 0.016579
vt 0.908845 0.045777
vt 0.881320 0.033858
vt 0.889235 0.000141
vt 0.876387 0.065577
vt 0.903868 0.066545
vt 0.903466 0.093989
vt 0.874223 0.095117
vt 0.935508 0.090175
vt 0.924927 0.061726
vt 0.954918 0.046413
vt 0.970962 0.083575
vt 0.957751 0.195321
vt 0.927793 0.226419
vt 0.910748 0.196687
vt 0.926055 0.179280
vt 0.882684 0.209010
vt 0.876741 0.176945
vt 0.904557 0.175578
vt 0.903662 0.147647
vt 0.936042 0.150028
vt 0.890902 0.243539
vt 0.641683 0.421778
vt 0.614201 0.420811
vt 0.614603 0.393367
vt 0.643846 0.392239
vt 0.614407 0.339709
vt 0.613511 0.311778
vt 0.641327 0.310410
vt 0.643854 0.340241
vt 0.628834 0.487214
vt 0.636749 0.453498
vt 0.544402 0.331925
vt 0.582026 0.337328
vt 0.582561 0.397181
vt 0.547107 0.403781
vt 0.876742 0.420620
vt 0.874215 0.147114
vt 0.903662 0.391322
vt 0.936043 0.393703
vt 0.926055 0.422955
vt 0.904558 0.419252
vt 0.881320 0.277533
vt 0.876386 0.309253
vt 0.635384 0.278346
vt 0.874223 0.338792
vt 0.614407 0.096031
vt 0.613511 0.068100
vt 0.641328 0.066733
vt 0.643854 0.096564
vt 0.874215 0.390789
vt 0.903466 0.337663
vt 0.935508 0.333849
vt 0.544125 0.250064
vt 0.543935 0.281975
vt 0.000328 0.281971
vt 0.000138 0.250064
vt 0.000138 0.999862
vt 0.000329 0.967951
vt 0.543935 0.967955
vt 0.544125 0.999862
vt 0.635385 0.034668
vt 0.627166 0.000138
vt 0.560317 0.292036
vt 0.592013 0.308075
vt 0.000328 0.935592
vt 0.543935 0.935597
vt 0.592196 0.470776
vt 0.609224 0.441579
vt 0.543935 0.814195
vt 0.544125 0.846101
vt 0.000138 0.846102
vt 0.000329 0.814191
vt 0.924927 0.305400
vt 0.954918 0.290088
vt 0.970962 0.327249
vt 0.593142 0.425630
vt 0.563151 0.440943
vt 0.560318 0.048357
vt 0.592014 0.064397
vt 0.582026 0.093649
vt 0.544402 0.088246
vt 0.544125 0.903686
vt 0.000138 0.903686
vt 0.973667 0.155431
vt 0.908845 0.289452
vt 0.903868 0.310220
vt 0.643846 0.148561
vt 0.628833 0.243537
vt 0.636748 0.209820
vt 0.641682 0.178100
vt 0.590275 0.017258
vt 0.607320 0.046991
vt 0.590274 0.260936
vt 0.607319 0.290669
vt 0.543935 0.781836
vt 0.000328 0.781833
vt 0.957752 0.438995
vt 0.973667 0.399106
vt 0.543935 0.314333
vt 0.544125 0.346240
vt 0.000138 0.346240
vt 0.000329 0.314329
vt 0.544125 0.403824
vt 0.000138 0.403824
vt 0.925873 0.260254
vt 0.609223 0.197901
vt 0.000138 0.500000
vt 0.000329 0.468089
vt 0.543935 0.468093
vt 0.544125 0.500000
vt 0.000328 0.435731
vt 0.543935 0.435735
vt 0.889234 0.243816
vt 0.592195 0.227098
vt 0.627165 0.243816
vt 0.544125 0.749926
vt 0.000138 0.749926
vt 0.544125 0.000138
vt 0.000138 0.000138
vn 0.5430 0.1728 0.8217
vn 0.4876 0.4877 0.7241
vn 0.1728 0.5430 0.8217
vn 0.1894 0.1894 0.9634
vn 0.8217 0.1728 0.5431
vn 0.7241 0.4876 0.4877
vn -0.5430 -0.8217 -0.1728
vn -0.4876 -0.7241 -0.4877
vn -0.1728 -0.8217 -0.5430
vn -0.1894 -0.9634 -0.1894
vn 0.1728 -0.8217 -0.5430
vn 0.4877 -0.7241 -0.4876
vn 0.5430 -0.8217 -0.1728
vn 0.1894 -0.9634 -0.1894
vn 0.8217 -0.5430 -0.1728
vn 0.7241 -0.4876 -0.4877
vn 0.8217 -0.1728 -0.5431
vn 0.9634 -0.1894 -0.1894
vn 0.5430 -0.1728 -0.8217
vn 0.4876 -0.4877 -0.7241
vn 0.1728 -0.5430 -0.8217
vn 0.1894 -0.1894 -0.9634
vn 0.1728 0.5430 -0.8217
vn 0.1728 0.8217 -0.5430
vn 0.4876 0.7241 -0.4877
vn 0.4877 0.4876 -0.7241
vn 0.5430 0.8217 -0.1728
vn 0.8217 0.5430 -0.1728
vn 0.7241 0.4877 -0.4876
vn 0.8217 0.1728 -0.5430
vn 0.5431 0.1728 -0.8217
vn 0.1894 0.9634 -0.1894
vn -0.8217 -0.5430 0.1728
vn -0.7241 -0.4876 0.4877
vn -0.8217 -0.1728 0.5431
vn -0.9634 -0.1894 0.1894
vn -0.8217 0.1728 0.5430
vn -0.7241 0.4877 0.4876
vn -0.8217 0.5430 0.1728
vn -0.9634 0.1894 0.1894
vn -0.1894 -0.9634 0.1894
vn -0.5430 -0.8217 0.1728
vn -0.1894 0.1894 0.9634
vn -0.5431 0.1728 0.8217
vn -0.5430 -0.1728 0.8217
vn -0.1894 -0.1894 0.9634
vn -0.8217 -0.5430 -0.1728
vn 0.9634 0.1894 -0.1894
vn -0.8217 -0.1728 -0.5430
vn -0.5431 -0.1728 -0.8217
vn -0.4877 -0.4876 -0.7241
vn -0.7241 -0.4877 -0.4876
vn -0.5430 0.8217 -0.1728
vn -0.8217 0.5430 -0.1728
vn -0.5430 0.8217 0.1728
vn -0.9634 0.1894 -0.1894
vn 0.8217 -0.1728 0.5430
vn 0.7241 -0.4877 0.4876
vn 0.8217 -0.5430 0.1728
vn 0.9634 -0.1894 0.1894
vn -0.9634 -0.1894 -0.1894
vn -0.8217 0.1728 -0.5431
vn -0.5430 0.1728 -0.8217
vn 0.1894 -0.9634 0.1894
vn 0.1728 -0.8217 0.5430
vn -0.1728 -0.8217 0.5430
vn 0.5430 -0.8217 0.1728
vn -0.1728 0.5430 0.8217
vn -0.4877 0.4876 0.7241
vn -0.1728 -0.5430 -0.8217
vn -0.4877 -0.7241 0.4876
vn 0.1894 0.1894 -0.9634
vn -0.1894 0.1894 -0.9634
vn -0.1728 0.5430 -0.8217
vn -0.4876 0.4877 -0.7241
vn -0.4876 -0.4877 0.7241
vn -0.1728 -0.5430 0.8217
vn 0.1728 -0.5430 0.8217
vn 0.4877 -0.4876 0.7241
vn 0.5431 -0.1728 0.8217
vn 0.1894 -0.1894 0.9634
vn -0.1894 -0.1894 -0.9634
vn -0.4877 0.7241 -0.4876
vn -0.7241 0.4876 -0.4877
vn 0.9634 0.1894 0.1894
vn 0.1894 0.9634 0.1894
vn 0.5430 0.8217 0.1728
vn 0.8217 0.5430 0.1728
vn 0.4876 -0.7241 0.4877
vn -0.1728 0.8217 0.5430
vn -0.4876 0.7241 0.4877
vn -0.1728 0.8217 -0.5430
vn 0.4877 0.7241 0.4876
vn -0.1894 0.9634 0.1894
vn 0.1728 0.8217 0.5430
vn -0.1894 0.9634 -0.1894
usemtl Soap_Material
s 1
f 30/1/1 28/2/2 29/3/3 35/4/4
f 30/1/1 26/5/5 25/6/6 28/2/2
f 69/7/7 67/8/8 68/9/9 72/10/10
f 21/11/11 19/12/12 20/13/13 24/14/14
f 15/15/15 13/16/16 14/17/17 22/18/18
f 18/19/19 16/20/20 17/21/21 23/22/22
f 21/11/11 17/21/21 16/20/20 19/12/12
f 3/23/23 8/24/24 7/25/25 1/26/26
f 9/27/27 5/28/28 4/29/29 7/25/25
f 6/30/30 2/31/31 1/26/26 4/29/29
f 9/27/27 7/25/25 8/24/24 12/32/32
f 87/33/33 85/34/34 86/35/35 94/36/36
f 75/37/37 73/38/38 74/39/39 82/40/40
f 96/41/41 92/42/42 69/7/7 72/10/10
f 84/43/43 80/44/44 90/45/45 95/46/46
f 92/42/42 87/33/33 65/47/47 69/7/7
f 22/18/18 14/17/17 6/30/30 11/48/48
f 66/49/49 62/50/50 61/51/51 64/52/52
f 80/44/44 75/37/37 86/35/35 90/45/45
f 56/53/53 51/54/54 74/39/39 78/55/55
f 51/54/54 58/56/56 82/40/40 74/39/39
f 42/57/57 40/58/58 41/59/59 47/60/60
f 82/40/40 58/56/56 71/61/61 94/36/36
f 62/50/50 66/49/49 50/62/62 54/63/63
f 48/64/64 44/65/65 93/66/66 96/67/41
f 72/68/10 68/69/9 21/70/11 24/71/14
f 87/33/33 94/36/36 71/61/61 65/47/47
f 24/14/14 20/13/13 45/72/67 48/73/64
f 81/74/68 79/75/69 80/44/44 84/43/43
f 6/30/30 4/29/29 5/28/28 11/48/48
f 75/37/37 82/40/40 94/36/36 86/35/35
f 68/69/9 63/76/70 17/77/21 21/70/11
f 18/19/19 14/17/17 13/16/16 16/20/20
f 93/78/66 91/79/71 92/42/42 96/41/41
f 66/49/49 64/52/52 65/47/47 71/61/61
f 3/80/23 10/81/72 59/82/73 53/83/74
f 69/7/7 65/47/47 64/52/52 67/8/8
f 54/63/63 52/84/75 53/85/74 59/86/73
f 66/49/49 71/61/61 58/56/56 50/62/62
f 90/45/45 88/87/76 89/88/77 95/46/46
f 39/89/78 37/90/79 38/91/80 46/92/81
f 59/82/73 10/81/72 23/93/22 70/94/82
f 18/19/19 23/22/22 10/95/72 2/31/31
f 3/23/23 1/26/26 2/31/31 10/95/72
f 51/54/54 56/53/53 55/96/83 49/97/84
f 14/17/17 18/19/19 2/31/31 6/30/30
f 15/15/15 22/18/18 47/60/60 41/59/59
f 11/48/48 34/98/85 47/60/60 22/18/18
f 15/15/15 20/13/13 19/12/12 13/16/16
f 36/99/86 32/100/87 9/27/27 12/32/32
f 32/100/87 27/101/88 5/28/28 9/27/27
f 39/89/78 44/102/65 43/103/89 37/90/79
f 90/45/45 86/35/35 85/34/34 88/87/76
f 81/74/68 77/104/90 76/105/91 79/75/69
f 93/78/66 89/88/77 88/87/76 91/79/71
f 8/106/24 3/80/23 53/83/74 57/107/92
f 46/92/81 38/91/80 30/1/1 35/4/4
f 63/108/70 61/51/51 62/50/50 70/109/82
f 54/63/63 50/62/62 49/97/84 52/84/75
f 51/54/54 49/97/84 50/62/62 58/56/56
f 42/57/57 38/91/80 37/90/79 40/58/58
f 39/110/78 46/111/81 95/112/46 89/113/77
f 35/114/4 84/115/43 95/112/46 46/111/81
f 57/116/92 53/85/74 52/84/75 55/96/83
f 27/101/88 32/100/87 31/117/93 25/6/6
f 83/118/94 77/119/90 33/120/95 36/121/86
f 77/119/90 81/122/68 29/123/3 33/120/95
f 87/33/33 92/42/42 91/79/71 85/34/34
f 20/13/13 15/15/15 41/59/59 45/72/67
f 57/116/92 55/96/83 56/53/53 60/124/96
f 33/125/95 29/3/3 28/2/2 31/117/93
f 45/72/67 41/59/59 40/58/58 43/103/89
f 27/101/88 25/6/6 26/5/5 34/98/85
f 60/124/96 56/53/53 78/55/55 83/126/94
f 38/91/80 42/57/57 26/5/5 30/1/1
f 42/57/57 47/60/60 34/98/85 26/5/5
f 81/122/68 84/115/43 35/114/4 29/123/3
f 70/109/82 62/50/50 54/63/63 59/86/73
f 45/72/67 43/103/89 44/102/65 48/73/64
f 27/101/88 34/98/85 11/48/48 5/28/28
f 63/108/70 68/9/9 67/8/8 61/51/51
f 78/55/55 74/39/39 73/38/38 76/105/91
f 33/125/95 31/117/93 32/100/87 36/99/86
f 78/55/55 76/105/91 77/104/90 83/126/94
f 75/37/37 80/44/44 79/75/69 73/38/38
f 44/65/65 39/110/78 89/113/77 93/66/66
f 63/76/70 70/94/82 23/93/22 17/77/21
f 43/103/89 40/58/58 37/90/79
f 31/117/93 28/2/2 25/6/6
f 19/12/12 16/20/20 13/16/16
f 7/25/25 4/29/29 1/26/26
f 67/8/8 64/52/52 61/51/51
f 55/96/83 52/84/75 49/97/84
f 91/79/71 88/87/76 85/34/34
f 79/75/69 76/105/91 73/38/38
f 83/118/94 36/121/86 12/127/32 60/128/96
f 24/129/14 48/64/64 96/67/41 72/130/10
f 12/127/32 8/106/24 57/107/92 60/128/96
