<?xml version="1.0" encoding="UTF-8" standalone="no"?>
<svg
   xmlns:dc="http://purl.org/dc/elements/1.1/"
   xmlns:cc="http://creativecommons.org/ns#"
   xmlns:rdf="http://www.w3.org/1999/02/22-rdf-syntax-ns#"
   xmlns:svg="http://www.w3.org/2000/svg"
   xmlns="http://www.w3.org/2000/svg"
   xmlns:sodipodi="http://sodipodi.sourceforge.net/DTD/sodipodi-0.dtd"
   xmlns:inkscape="http://www.inkscape.org/namespaces/inkscape"
   width="16"
   height="16"
   version="1.1"
   viewBox="0 0 16 16"
   id="svg3729"
   sodipodi:docname="icon.svg"
   inkscape:version="0.92.3 (2405546, 2018-03-11)">
  <metadata
     id="metadata3735">
    <rdf:RDF>
      <cc:Work
         rdf:about="">
        <dc:format>image/svg+xml</dc:format>
        <dc:type
           rdf:resource="http://purl.org/dc/dcmitype/StillImage" />
        <dc:title></dc:title>
      </cc:Work>
    </rdf:RDF>
  </metadata>
  <defs
     id="defs3733">
    <inkscape:path-effect
       effect="bspline"
       id="path-effect4618"
       is_visible="true"
       weight="33.333333"
       steps="2"
       helper_size="0"
       apply_no_weight="true"
       apply_with_weight="true"
       only_selected="false" />
    <inkscape:path-effect
       effect="bspline"
       id="path-effect4614"
       is_visible="true"
       weight="33.333333"
       steps="2"
       helper_size="0"
       apply_no_weight="true"
       apply_with_weight="true"
       only_selected="false" />
  </defs>
  <sodipodi:namedview
     pagecolor="#ffffff"
     bordercolor="#666666"
     borderopacity="1"
     objecttolerance="10"
     gridtolerance="10"
     guidetolerance="10"
     inkscape:pageopacity="0"
     inkscape:pageshadow="2"
     inkscape:window-width="2560"
     inkscape:window-height="1377"
     id="namedview3731"
     showgrid="false"
     inkscape:zoom="18.875"
     inkscape:cx="-0.19860836"
     inkscape:cy="6.4069718"
     inkscape:window-x="1912"
     inkscape:window-y="-8"
     inkscape:window-maximized="1"
     inkscape:current-layer="svg3729" />
  <g
     transform="matrix(0.80586565,0,0,0.80586565,1.6684957,-831.6779)"
     id="g3727"
     style="fill:#fc9c9c;fill-opacity:0.99607843">
    <path
       transform="translate(0,1036.4)"
       d="M 8,1 A 5,5 0 0 0 3,6 5,5 0 0 0 6,10.5762 V 13 h 4 V 10.5801 A 5,5 0 0 0 13,6 5,5 0 0 0 8,1 Z M 8,3 A 3,3 0 0 1 11,6 3,3 0 0 1 8,9 3,3 0 0 1 5,6 3,3 0 0 1 8,3 Z M 7,14 v 1 h 2 v -1 z"
       id="path3725"
       inkscape:connector-curvature="0"
       style="fill:#fc9c9c;fill-opacity:0.99607843" />
  </g>
  <path
     style="fill:#fc9c9c;fill-opacity:0.99607843;stroke-width:0.02649007"
     d="M 15.044447,6.4340654 C 14.758333,5.5686712 14.522281,5.1008015 13.985862,4.3358839 12.853437,2.7210784 11.885347,1.9594492 10.51281,1.6035172 9.5097678,1.3434041 8.0523633,1.2635093 6.6710213,1.3929107 5.6299241,1.4904386 4.8207381,1.7069003 4.0889691,2.0836238 2.9853021,2.6518046 2.2270071,3.5300283 1.3127933,5.2988667 1.1885453,5.5392641 1.0826815,5.7411242 1.0775404,5.7474447 1.0690832,5.7578421 0.16905861,5.5134121 0.14504599,5.4941968 0.12786622,5.480449 0.50173821,4.7300362 0.7262113,4.3277176 1.2589439,3.3729117 1.7274418,2.7312037 2.2909248,2.1845078 3.1634896,1.337938 4.3179055,0.78350024 5.7313532,0.53215408 7.0422065,0.29905176 8.9874372,0.3048279 10.256676,0.54559151 c 1.448634,0.27479333 2.549799,0.89308389 3.539563,1.98742069 0.787026,0.8701782 1.535512,1.9803496 1.882622,2.7923446 0.07975,0.1865647 0.304148,0.8037512 0.304148,0.8365393 0,0.0052 -0.193709,0.071047 -0.430464,0.1463227 -0.236755,0.075276 -0.445263,0.142454 -0.463352,0.149286 -0.01809,0.00683 -0.03822,-0.00372 -0.04475,-0.023439 z"
     id="path4620"
     inkscape:connector-curvature="0" />
  <path
     style="fill:#fc9c9c;fill-opacity:0.99607843;stroke-width:0.02649007"
     d="m 14.022088,8.4891952 c -0.01421,-0.037372 -0.02584,-0.07275 -0.02584,-0.078618 0,-0.041023 -0.438397,-1.2583655 -0.600691,-1.6680023 C 12.807456,5.2581764 12.311616,4.651987 11.254532,4.1250563 10.111552,3.5553087 8.7497971,3.3696607 6.9556316,3.5389874 5.9460213,3.6342706 5.3728975,3.8688731 4.7945964,4.4235857 4.1935487,5.0001169 3.693263,5.7871123 2.7563133,7.6299926 2.5229806,8.088933 2.3275714,8.4698612 2.3220706,8.4765001 2.3075904,8.4939754 1.4664525,8.0723756 1.4664525,8.0476424 c 0,-0.029719 0.5469829,-1.1192451 0.8231195,-1.6395587 C 2.995499,5.0779329 3.4724848,4.3718663 4.0596385,3.7879124 4.7956962,3.0558659 5.5356175,2.7196872 6.7127081,2.5825066 7.5777222,2.481696 8.7965089,2.4878389 9.5485015,2.5967994 10.692987,2.7626306 11.746145,3.1772061 12.54392,3.7759462 c 0.292435,0.2194757 0.737547,0.6843894 0.938509,0.9802594 0.400276,0.5893123 0.738103,1.3328376 1.173336,2.5823962 0.104032,0.2986755 0.218739,0.6254877 0.254905,0.7262493 0.03617,0.1007613 0.06277,0.1856493 0.05911,0.1886395 -0.01605,0.013133 -0.873826,0.3036543 -0.896555,0.3036543 -0.01392,0 -0.03693,-0.030577 -0.05114,-0.06795 z"
     id="path4622"
     inkscape:connector-curvature="0" />
</svg>
