# Blender v2.78 (sub 0) OBJ File: 'soap_1.blend'
# www.blender.org
mtllib soap_1_smooth.mtl
o soap_bar_high_Cube.002
v -0.480527 0.560731 -0.206339
v -0.478411 0.538865 -0.214665
v -0.502403 0.562854 -0.214667
v -0.468224 0.560741 -0.194027
v -0.459898 0.562857 -0.172160
v -0.459896 0.538865 -0.196150
v -0.480537 0.573044 -0.194036
v -0.502403 0.581370 -0.196152
v -0.478414 0.581372 -0.172160
v -0.502249 0.539019 -0.224590
v -0.449973 0.539019 -0.172314
v -0.502249 0.591294 -0.172314
v -0.468224 0.470709 -0.194036
v -0.459898 0.492576 -0.196152
v -0.459896 0.468586 -0.172160
v -0.480537 0.470700 -0.206339
v -0.502403 0.468583 -0.214665
v -0.478414 0.492575 -0.214667
v -0.480527 0.458396 -0.194027
v -0.478411 0.450071 -0.172160
v -0.502403 0.450069 -0.196150
v -0.449973 0.492422 -0.172314
v -0.502249 0.492422 -0.224590
v -0.502249 0.440146 -0.172314
v -0.468224 0.560731 0.051646
v -0.459898 0.538865 0.053763
v -0.459896 0.562854 0.029771
v -0.480537 0.560741 0.063950
v -0.502403 0.562857 0.072275
v -0.478414 0.538865 0.072277
v -0.480527 0.573044 0.051637
v -0.478411 0.581370 0.029770
v -0.502403 0.581372 0.053760
v -0.449973 0.539019 0.029924
v -0.502249 0.539019 0.082200
v -0.502249 0.591294 0.029924
v -0.480527 0.470709 0.063950
v -0.478411 0.492576 0.072275
v -0.502403 0.468586 0.072277
v -0.468224 0.470700 0.051637
v -0.459898 0.468583 0.029770
v -0.459896 0.492575 0.053760
v -0.480537 0.458396 0.051646
v -0.502403 0.450071 0.053763
v -0.478414 0.450069 0.029771
v -0.502249 0.492422 0.082200
v -0.449973 0.492422 0.029924
v -0.502249 0.440146 0.029924
v -0.976465 0.560731 -0.194036
v -0.984791 0.538865 -0.196152
v -0.984793 0.562854 -0.172160
v -0.964152 0.560741 -0.206339
v -0.942286 0.562857 -0.214665
v -0.966275 0.538865 -0.214667
v -0.964162 0.573044 -0.194027
v -0.966278 0.581370 -0.172160
v -0.942286 0.581372 -0.196150
v -0.994715 0.539019 -0.172314
v -0.942440 0.539019 -0.224590
v -0.942440 0.591294 -0.172314
v -0.964162 0.470709 -0.206339
v -0.966278 0.492576 -0.214665
v -0.942286 0.468586 -0.214667
v -0.976465 0.470700 -0.194027
v -0.984791 0.468583 -0.172160
v -0.984793 0.492575 -0.196150
v -0.964152 0.458396 -0.194036
v -0.942286 0.450071 -0.196152
v -0.966275 0.450069 -0.172160
v -0.942440 0.492422 -0.224590
v -0.994715 0.492422 -0.172314
v -0.942440 0.440146 -0.172314
v -0.976465 0.560741 0.051637
v -0.984791 0.562857 0.029770
v -0.984793 0.538865 0.053760
v -0.964152 0.573044 0.051646
v -0.942286 0.581370 0.053763
v -0.966275 0.581372 0.029771
v -0.964162 0.560731 0.063950
v -0.966278 0.538865 0.072275
v -0.942286 0.562854 0.072277
v -0.994715 0.539019 0.029924
v -0.942440 0.591294 0.029924
v -0.942440 0.539019 0.082200
v -0.976465 0.470709 0.051646
v -0.984791 0.492576 0.053763
v -0.984793 0.468586 0.029771
v -0.964152 0.470700 0.063950
v -0.942286 0.468583 0.072275
v -0.966275 0.492575 0.072277
v -0.964162 0.458396 0.051637
v -0.966278 0.450071 0.029770
v -0.942286 0.450069 0.053760
v -0.994715 0.492422 0.029924
v -0.942440 0.492422 0.082200
v -0.942440 0.440146 0.029924
vt 0.9364 0.2990
vt 0.9365 0.2970
vt 0.9389 0.2980
vt 0.4147 0.7805
vt 0.4157 0.7721
vt 0.4245 0.7717
vt 0.0562 0.7194
vt 0.0573 0.7106
vt 0.0666 0.7101
vt 0.0484 0.7192
vt 0.0523 0.7104
vt 0.8066 0.2252
vt 0.8065 0.2293
vt 0.8014 0.2273
vt 0.4505 0.8700
vt 0.4495 0.8784
vt 0.4407 0.8788
vt 0.4579 0.8703
vt 0.4542 0.8785
vt 0.0797 0.3038
vt 0.0782 0.3039
vt 0.0787 0.2980
vt 0.4207 0.8782
vt 0.4120 0.8772
vt 0.4115 0.8688
vt 0.8239 0.2202
vt 0.8233 0.2251
vt 0.8182 0.2254
vt 0.8282 0.2203
vt 0.8261 0.2251
vt 0.9284 0.3589
vt 0.9284 0.3609
vt 0.9259 0.3598
vt 0.5627 0.8659
vt 0.5623 0.8715
vt 0.5554 0.8684
vt 0.5930 0.8607
vt 0.5870 0.8603
vt 0.5927 0.7893
vt 0.5788 0.8670
vt 0.5794 0.8597
vt 0.5851 0.7887
vt 0.0840 0.3657
vt 0.0821 0.3657
vt 0.5857 0.7814
vt 0.5927 0.7825
vt 0.1647 0.7133
vt 0.1740 0.7144
vt 0.1744 0.7233
vt 0.5633 0.8586
vt 0.1229 0.3023
vt 0.1249 0.3022
vt 0.1272 0.3641
vt 0.5554 0.7866
vt 0.5614 0.7870
vt 0.5557 0.8580
vt 0.4445 0.7723
vt 0.4447 0.7653
vt 0.4534 0.7689
vt 0.5690 0.7876
vt 0.8086 0.1067
vt 0.8087 0.1014
vt 0.8203 0.1016
vt 0.0590 0.9256
vt 0.0489 0.9253
vt 0.7987 0.1065
vt 0.8030 0.1066
vt 0.8011 0.2198
vt 0.1571 0.9288
vt 0.1567 0.9384
vt 0.0586 0.9353
vt 0.9342 0.3565
vt 0.9341 0.3591
vt 0.4205 0.8852
vt 0.4118 0.8816
vt 0.5859 0.8670
vt 0.8067 0.2199
vt 0.0796 0.2980
vt 0.0814 0.2974
vt 0.1227 0.2960
vt 0.1245 0.2964
vt 0.0584 0.9427
vt 0.0492 0.9390
vt 0.8258 0.1070
vt 0.8008 0.1017
vt 0.8204 0.0975
vt 0.8255 0.0995
vt 0.5861 0.7758
vt 0.5696 0.7803
vt 0.1671 0.9291
vt 0.1750 0.9294
vt 0.1710 0.9381
vt 0.4532 0.7733
vt 0.4537 0.7817
vt 0.8183 0.2201
vt 0.8202 0.1069
vt 0.1225 0.2910
vt 0.1244 0.2933
vt 0.4410 0.8697
vt 0.4442 0.7814
vt 0.8015 0.2247
vt 0.4073 0.7802
vt 0.4242 0.7808
vt 0.4210 0.8691
vt 0.9279 0.3012
vt 0.9282 0.2989
vt 0.9307 0.2988
vt 0.9260 0.3586
vt 0.9259 0.3562
vt 0.1287 0.3641
vt 0.1282 0.3700
vt 0.5897 0.8673
vt 0.0816 0.3038
vt 0.5930 0.7789
vt 0.5625 0.7803
vt 0.9259 0.3012
vt 0.9306 0.3013
vt 0.9285 0.3563
vt 0.8254 0.1021
vt 0.0842 0.3720
vt 0.0844 0.3770
vt 0.0826 0.3747
vt 0.9390 0.3567
vt 0.9369 0.3566
vt 0.9390 0.3016
vt 0.9363 0.3015
vt 0.1660 0.9380
vt 0.0663 0.7198
vt 0.5587 0.7801
vt 0.0825 0.3716
vt 0.9269 0.2988
vt 0.4110 0.7720
vt 0.1253 0.3642
vt 0.1255 0.3706
vt 0.9389 0.2992
vt 0.8035 0.1017
vt 0.1650 0.7058
vt 0.1741 0.7096
vt 0.0494 0.9342
vt 0.5557 0.8648
vt 0.1273 0.3700
vt 0.9379 0.3590
vt 0.9366 0.3589
vt 0.1644 0.7229
vt 0.4579 0.7735
vt 0.4159 0.7677
vt 0.4493 0.8828
vt 0.4073 0.8770
vt 0.0444 0.9341
vt 0.8282 0.1021
vt 0.1659 0.9427
vt 0.1274 0.3731
vt 0.9146 0.8782
vt 0.1395 0.8670
vt 0.1038 0.1279
vt 0.8789 0.1391
vn 0.5430 0.1728 0.8217
vn 0.8217 0.1728 0.5431
vn 0.7238 0.4878 0.4880
vn 0.8217 0.5430 0.1728
vn 0.1728 -0.8217 -0.5430
vn 0.4880 -0.7238 -0.4878
vn 0.5431 -0.8217 -0.1728
vn 0.1728 -0.5431 -0.8217
vn 0.4878 -0.4880 -0.7238
vn 0.5430 -0.1728 -0.8217
vn 0.8217 -0.1728 -0.5431
vn 0.7238 -0.4878 -0.4880
vn 0.8217 -0.5430 -0.1728
vn 0.5430 0.8217 -0.1728
vn 0.8217 0.5431 -0.1728
vn 0.7238 0.4880 -0.4878
vn 0.8217 0.1728 -0.5430
vn 0.1728 0.5430 -0.8217
vn 0.4880 0.4878 -0.7238
vn 0.5431 0.1728 -0.8217
vn 0.1728 0.8217 -0.5431
vn 0.4878 0.7238 -0.4880
vn -0.5430 -0.1728 0.8217
vn -0.8217 -0.1728 0.5431
vn -0.7238 -0.4878 0.4880
vn -0.8217 0.1728 0.5430
vn -0.5431 0.1728 0.8217
vn -0.4880 0.4878 0.7238
vn -0.5431 -0.8217 0.1728
vn -0.8217 -0.5430 0.1728
vn -0.8217 -0.5431 -0.1728
vn -0.9635 -0.1892 0.1892
vn -0.9635 -0.1892 -0.1892
vn 0.1892 0.9635 0.1892
vn 0.5430 0.8217 0.1728
vn -0.8217 -0.1728 -0.5430
vn -0.7238 -0.4880 -0.4878
vn 0.5430 -0.8217 0.1728
vn 0.4878 -0.7238 0.4880
vn 0.1728 -0.8217 0.5431
vn -0.9635 0.1892 0.1892
vn -0.1892 0.9635 -0.1892
vn -0.5431 0.8217 -0.1728
vn -0.5430 0.8217 0.1728
vn -0.8217 0.5430 -0.1728
vn -0.8217 0.5430 0.1728
vn 0.8217 -0.1728 0.5430
vn 0.5431 -0.1728 0.8217
vn 0.4880 -0.4878 0.7238
vn -0.9635 0.1892 -0.1892
vn -0.1892 -0.1892 -0.9635
vn -0.5431 -0.1728 -0.8217
vn -0.5430 0.1728 -0.8217
vn -0.1892 -0.9635 -0.1892
vn -0.1728 -0.8217 -0.5431
vn -0.1728 -0.5430 -0.8217
vn -0.1892 -0.9635 0.1892
vn -0.5430 -0.8217 -0.1728
vn -0.1892 0.1892 0.9635
vn 0.1892 -0.1892 -0.9635
vn -0.1728 0.8217 -0.5430
vn -0.4880 0.7238 -0.4878
vn -0.1728 0.5431 -0.8217
vn -0.4878 -0.7238 -0.4880
vn -0.8217 0.1728 -0.5431
vn -0.7238 0.4878 -0.4880
vn -0.1728 -0.8217 0.5430
vn -0.1728 -0.5431 0.8217
vn -0.4878 -0.4880 0.7238
vn 0.7238 -0.4880 0.4878
vn 0.8217 -0.5431 0.1728
vn 0.1892 0.1892 -0.9635
vn -0.1892 0.1892 -0.9635
vn -0.4878 0.4880 -0.7238
vn 0.9635 -0.1892 -0.1892
vn 0.9635 -0.1892 0.1892
vn 0.9635 0.1892 0.1892
vn 0.9635 0.1892 -0.1892
vn 0.1728 -0.5430 0.8217
vn -0.7238 0.4880 0.4878
vn -0.4880 -0.7238 0.4878
vn 0.1892 0.9635 -0.1892
vn -0.4880 -0.4878 -0.7238
vn 0.1892 -0.1892 0.9635
vn -0.1892 -0.1892 0.9635
vn 0.1728 0.8217 0.5430
vn 0.1728 0.5431 0.8217
vn 0.4878 0.4880 0.7238
vn -0.1728 0.8217 0.5431
vn -0.1728 0.5430 0.8217
vn 0.1892 0.1892 0.9635
vn 0.1892 -0.9635 -0.1892
vn 0.4880 0.7238 0.4878
vn -0.1892 0.9635 0.1892
vn -0.4878 0.7238 0.4880
vn 0.1892 -0.9635 0.1892
g soap_bar_high_Cube.002_Soap_Material
usemtl Soap_Material
s 1
f 30/1/1 26/2/2 25/3/3
f 27/4/4 25/5/3 26/6/2
f 21/7/5 19/8/6 20/9/7
f 21/7/5 17/10/8 16/11/9
f 18/12/10 14/13/11 13/14/12
f 15/15/13 13/16/12 14/17/11
f 15/15/13 20/18/7 19/19/6
f 9/20/14 5/21/15 4/22/16
f 6/23/17 4/24/16 5/25/15
f 3/26/18 1/27/19 2/28/20
f 3/26/18 8/29/21 7/30/22
f 90/31/23 86/32/24 85/33/25
f 75/34/26 80/35/27 79/36/28
f 92/37/29 87/38/30 65/39/31
f 80/35/27 75/34/26 86/40/24
f 87/38/30 94/41/32 71/42/33
f 36/43/34 32/44/35 9/20/14
f 66/45/36 64/46/37 65/39/31
f 45/47/38 43/48/39 44/49/40
f 75/34/26 82/50/41 94/41/32
f 60/51/42 56/52/43 78/53/44
f 56/54/43 51/55/45 74/56/46
f 42/57/47 38/58/48 37/59/49
f 51/55/45 58/60/50 82/50/41
f 70/61/51 62/62/52 54/63/53
f 72/64/54 68/65/55 21/7/5
f 68/66/55 63/67/56 17/68/8
f 82/50/41 58/60/50 71/42/33
f 96/69/57 92/70/29 69/71/58
f 84/72/59 80/73/27 90/31/23
f 6/23/17 2/74/20 1/75/19
f 87/38/30 85/76/25 86/40/24
f 63/67/56 70/61/51 23/77/60
f 9/20/14 7/78/22 8/79/21
f 57/80/61 55/81/62 56/52/43
f 69/71/58 65/82/31 64/83/37
f 8/29/21 3/26/18 53/84/63
f 63/67/56 68/66/55 67/85/64
f 54/63/53 50/86/65 49/87/66
f 62/88/52 66/45/36 50/89/65
f 93/90/67 89/91/68 88/92/69
f 42/57/47 40/93/70 41/94/71
f 3/26/18 10/95/72 59/96/73
f 14/13/11 18/12/10 2/28/20
f 18/12/10 23/77/60 10/95/72
f 57/80/61 53/97/63 52/98/74
f 22/99/75 14/17/11 6/23/17
f 20/18/7 15/15/13 41/94/71
f 15/15/13 22/99/75 47/100/76
f 18/12/10 16/101/9 17/68/8
f 32/102/35 27/4/4 5/25/15
f 27/4/4 34/103/77 11/104/78
f 39/105/79 37/106/49 38/107/48
f 90/31/23 88/108/69 89/109/68
f 78/53/44 74/110/46 73/111/80
f 87/38/30 92/37/29 91/112/81
f 12/113/82 8/79/21 57/80/61
f 38/58/48 42/57/47 26/6/2
f 66/45/36 62/88/52 61/114/83
f 51/55/45 49/115/66 50/89/65
f 66/45/36 71/42/33 58/60/50
f 42/57/47 47/100/76 34/103/77
f 44/116/40 39/105/79 89/109/68
f 39/105/79 46/117/84 95/118/85
f 54/63/53 52/119/74 53/84/63
f 33/120/86 29/121/87 28/122/88
f 77/123/89 81/124/90 29/125/87
f 81/124/90 84/72/59 35/126/91
f 93/90/67 91/127/81 92/70/29
f 24/128/92 20/9/7 45/47/38
f 51/55/45 56/54/43 55/129/62
f 33/120/86 31/130/93 32/44/35
f 39/105/79 44/116/40 43/131/39
f 27/4/4 32/102/35 31/132/93
f 83/133/94 77/134/89 33/120/86
f 30/1/1 28/135/88 29/125/87
f 46/117/84 38/107/48 30/1/1
f 35/126/91 84/72/59 95/118/85
f 63/67/56 61/136/83 62/62/52
f 45/47/38 41/137/71 40/138/70
f 11/104/78 34/103/77 47/100/76
f 69/71/58 67/139/64 68/65/55
f 75/34/26 73/140/80 74/56/46
f 78/53/44 76/141/95 77/134/89
f 81/124/90 77/123/89 76/142/95
f 81/124/90 79/143/28 80/73/27
f 48/144/96 44/49/40 93/90/67
f 59/96/73 10/95/72 23/77/60
f 92/70/29 65/82/31 69/71/58
f 36/43/34 9/20/14 12/113/82
f 72/64/54 21/7/5 24/128/92
f 51/55/45 82/50/41 74/56/46
f 43/145/39 40/93/70 37/59/49
f 84/72/59 90/31/23 95/118/85
f 81/124/90 35/126/91 29/125/87
f 31/132/93 28/146/88 25/5/3
f 83/133/94 33/120/86 36/43/34
f 44/49/40 89/91/68 93/90/67
f 48/144/96 93/90/67 96/69/57
f 42/57/47 34/103/77 26/6/2
f 38/107/48 26/2/2 30/1/1
f 46/117/84 30/1/1 35/126/91
f 9/20/14 8/79/21 12/113/82
f 42/57/47 41/94/71 47/100/76
f 32/44/35 5/21/15 9/20/14
f 15/15/13 47/100/76 41/94/71
f 20/9/7 41/137/71 45/47/38
f 24/128/92 45/47/38 48/144/96
f 18/12/10 10/95/72 2/28/20
f 22/99/75 6/23/17 11/104/78
f 3/26/18 59/96/73 53/84/63
f 18/12/10 13/14/12 16/101/9
f 12/113/82 57/80/61 60/51/42
f 63/67/56 23/77/60 17/68/8
f 68/65/55 17/10/8 21/7/5
f 66/45/36 58/60/50 50/89/65
f 70/61/51 54/63/53 59/96/73
f 56/52/43 74/110/46 78/53/44
f 60/51/42 78/53/44 83/133/94
f 87/38/30 71/42/33 65/39/31
f 96/69/57 69/71/58 72/64/54
f 3/26/18 7/30/22 1/27/19
f 3/26/18 2/28/20 10/95/72
f 6/23/17 5/25/15 11/104/78
f 9/20/14 4/22/16 7/78/22
f 15/15/13 19/19/6 13/16/12
f 15/15/13 14/17/11 22/99/75
f 18/12/10 17/68/8 23/77/60
f 21/7/5 16/11/9 19/8/6
f 27/4/4 31/132/93 25/5/3
f 27/4/4 26/6/2 34/103/77
f 30/1/1 29/125/87 35/126/91
f 33/120/86 28/122/88 31/130/93
f 39/105/79 43/131/39 37/106/49
f 39/105/79 38/107/48 46/117/84
f 45/47/38 40/138/70 43/48/39
f 45/47/38 44/49/40 48/144/96
f 19/19/6 16/147/9 13/16/12
f 7/148/22 4/24/16 1/75/19
f 80/73/27 86/32/24 90/31/23
f 6/23/17 1/75/19 4/24/16
f 14/17/11 2/74/20 6/23/17
f 77/134/89 29/121/87 33/120/86
f 39/105/79 95/118/85 89/109/68
f 62/62/52 50/86/65 54/63/53
f 75/34/26 94/41/32 86/40/24
f 30/1/1 25/3/3 28/135/88
f 21/7/5 20/9/7 24/128/92
f 33/120/86 32/44/35 36/43/34
f 42/57/47 37/59/49 40/93/70
f 8/79/21 53/97/63 57/80/61
f 27/4/4 11/104/78 5/25/15
f 63/67/56 62/62/52 70/61/51
f 66/45/36 61/114/83 64/46/37
f 57/80/61 52/98/74 55/81/62
f 67/139/64 64/83/37 61/149/83
f 55/150/62 52/119/74 49/87/66
f 51/55/45 55/129/62 49/115/66
f 51/55/45 50/89/65 58/60/50
f 54/63/53 53/84/63 59/96/73
f 57/80/61 56/52/43 60/51/42
f 63/67/56 67/85/64 61/136/83
f 66/45/36 65/39/31 71/42/33
f 54/63/53 49/87/66 52/119/74
f 69/71/58 64/83/37 67/139/64
f 69/71/58 68/65/55 72/64/54
f 91/127/81 88/92/69 85/151/25
f 75/34/26 74/56/46 82/50/41
f 78/53/44 73/111/80 76/141/95
f 75/34/26 79/36/28 73/140/80
f 81/124/90 76/142/95 79/143/28
f 87/38/30 91/112/81 85/76/25
f 78/53/44 77/134/89 83/133/94
f 81/124/90 80/73/27 84/72/59
f 90/31/23 85/33/25 88/108/69
f 79/152/28 76/141/95 73/111/80
f 87/38/30 86/40/24 94/41/32
f 90/31/23 89/109/68 95/118/85
f 93/90/67 88/92/69 91/127/81
f 93/90/67 92/70/29 96/69/57
f 59/96/73 23/77/60 70/61/51
f 82/50/41 71/42/33 94/41/32
f 11/104/78 47/100/76 22/99/75
f 35/126/91 95/118/85 46/117/84
f 83/153/94 36/154/34 12/155/82 60/156/42
f 24/128/92 48/144/96 96/69/57 72/64/54
